<?xml version="1.0" encoding="UTF-8"?>
<svg version="1.1" xmlns="http://www.w3.org/2000/svg" width="500" height="500">
<path d="M0 0 C0.88526367 0.12890625 1.77052734 0.2578125 2.68261719 0.390625 C24.6976057 3.65995296 51.12407943 8.50630667 70 21 C69.41865127 24.26859002 68.47844849 25.8912158 66.12109375 28.20703125 C65.23997925 29.08125732 65.23997925 29.08125732 64.34106445 29.97314453 C63.39880005 30.88362549 63.39880005 30.88362549 62.4375 31.8125 C61.79707764 32.44269043 61.15665527 33.07288086 60.49682617 33.72216797 C57.35259941 36.79586779 54.17544638 39.78971257 50.8125 42.625 C47.34786237 45.56469253 44.26704902 48.7921373 41.1875 52.125 C40.48427612 52.88031006 40.48427612 52.88031006 39.7668457 53.65087891 C37.09600424 56.58517894 34.91531995 59.52569869 33 63 C27.16332892 61.56907419 21.34181034 60.09789421 15.5390625 58.53515625 C0.42988818 54.46912735 0.42988818 54.46912735 -15 52 C-15.90492188 51.89042969 -16.80984375 51.78085937 -17.7421875 51.66796875 C-57.60336738 47.52726447 -97.37986946 57.2616364 -132 77 C-132.92462036 77.52678345 -132.92462036 77.52678345 -133.86791992 78.06420898 C-135.57936524 79.04149032 -137.28972122 80.02067862 -139 81 C-140.17755859 81.65162109 -140.17755859 81.65162109 -141.37890625 82.31640625 C-146.68283054 85.34315374 -151.51512482 88.80198702 -156.3125 92.5625 C-156.899104 93.02148682 -157.48570801 93.48047363 -158.09008789 93.95336914 C-161.62750621 96.7718944 -164.84495846 99.74950338 -168 103 C-168.96543049 103.95776702 -169.93297326 104.9134084 -170.90234375 105.8671875 C-176.1699618 111.07992559 -181.24074728 116.31211261 -186 122 C-187.13695312 123.07894531 -187.13695312 123.07894531 -188.296875 124.1796875 C-191.57456815 127.59947718 -194.16058705 131.27513177 -196.8125 135.1875 C-197.56563477 136.27321289 -197.56563477 136.27321289 -198.33398438 137.38085938 C-201.03576271 140.88936766 -201.03576271 140.88936766 -202 145 C-202.66 145 -203.32 145 -204 145 C-204.33 146.65 -204.66 148.3 -205 150 C-205.66 150 -206.32 150 -207 150 C-207.0825 150.67804688 -207.165 151.35609375 -207.25 152.0546875 C-208.02042211 155.08019935 -209.26527391 157.42691602 -210.83129883 160.11132812 C-220.64349685 177.01774327 -226.4100391 196.84031916 -230 216 C-230.22300781 217.14210937 -230.44601563 218.28421875 -230.67578125 219.4609375 C-237.07058054 259.56981469 -229.7126069 304.34292044 -209.28515625 339.49609375 C-208 342 -208 342 -208 345 C-207.34 345 -206.68 345 -206 345 C-205.87625 345.804375 -205.7525 346.60875 -205.625 347.4375 C-205.41875 348.283125 -205.2125 349.12875 -205 350 C-204.34 350.33 -203.68 350.66 -203 351 C-202.73316406 351.53496094 -202.46632813 352.06992187 -202.19140625 352.62109375 C-200.14064006 356.71590232 -197.25344359 360.27407176 -194.54492188 363.95507812 C-192.60719654 366.62122884 -191.04917961 368.85246118 -190 372 C-189.01 372.33 -188.02 372.66 -187 373 C-185.421875 374.56640625 -185.421875 374.56640625 -183.75 376.5625 C-183.13640625 377.28308594 -182.5228125 378.00367188 -181.890625 378.74609375 C-180.95476562 379.86177734 -180.95476562 379.86177734 -180 381 C-176.18008592 385.53826075 -172.39829848 389.74673952 -167.7734375 393.48046875 C-165.38558306 395.52644976 -163.22143888 397.77520039 -161 400 C-152.89322782 407.54671884 -143.97928849 412.59804873 -134.26806641 417.76806641 C-132.12373661 418.93279064 -130.01787042 420.14402456 -127.91796875 421.38671875 C-118.29940498 427.06260243 -108.52800659 431.29686089 -98 435 C-96.88915039 435.40412109 -96.88915039 435.40412109 -95.75585938 435.81640625 C-56.12018788 450.12256841 -11.53806759 448.93712087 28 435 C28.69770508 434.75942871 29.39541016 434.51885742 30.11425781 434.27099609 C41.99289679 430.1238736 52.81008985 424.58300881 63.70043945 418.31152344 C65.99757771 417.00138152 68.31667829 415.7383939 70.640625 414.4765625 C74.68926146 412.23237781 78.45101018 409.72674285 82.1875 407 C82.76435547 406.5875 83.34121094 406.175 83.93554688 405.75 C89.00872169 402.08953565 94.10428152 398.39295812 98.0625 393.5 C100.52999009 390.46749044 103.21468941 387.74410777 106 385 C107.73041639 383.29293256 109.45959351 381.58460794 111.1875 379.875 C112.47720703 378.60269531 112.47720703 378.60269531 113.79296875 377.3046875 C116.12061421 375.00850005 116.12061421 375.00850005 118 372 C118.66 372 119.32 372 120 372 C120.35191406 371.21496094 120.35191406 371.21496094 120.7109375 370.4140625 C122.75772793 366.58098223 125.36793687 363.12563393 127.8984375 359.6015625 C130.24094682 356.59528996 130.24094682 356.59528996 131 353 C133 351 133 351 135 350 C135.65555119 347.47266765 135.65555119 347.47266765 136 345 C136.66 345 137.32 345 138 345 C138.09023438 344.32195312 138.18046875 343.64390625 138.2734375 342.9453125 C139.17939564 339.27277252 140.85748396 336.18646786 142.625 332.875 C165.10304765 289.17247837 166.8630929 239.53176796 154.89404297 192.51245117 C154.63510254 191.47451416 154.37616211 190.43657715 154.109375 189.3671875 C153.87186523 188.45050293 153.63435547 187.53381836 153.38964844 186.58935547 C152.95789181 183.72017578 153.17160806 181.77143255 154 179 C158.85933252 173.00296662 164.89456932 168.18159848 171.046875 163.578125 C173.77240077 161.37590018 175.79524797 158.71354096 178 156 C180.00154734 154.15179701 182.0558647 152.38065694 184.12890625 150.61328125 C186.18926163 148.83681618 188.11623602 146.96225415 190 145 C193 146 193 146 194.16333008 147.89160156 C194.71089966 149.12861816 194.71089966 149.12861816 195.26953125 150.390625 C195.68058105 151.31705811 196.09163086 152.24349121 196.51513672 153.19799805 C196.9432666 154.20515869 197.37139648 155.21231934 197.8125 156.25 C198.47789795 157.80424683 198.47789795 157.80424683 199.15673828 159.38989258 C207.23296862 178.73250841 214.52926556 202.23379843 214 223.4375 C213.96286095 224.95787979 213.95258966 226.47990583 214 228 C214.33 228.33 214.66 228.66 215 229 C215.10103255 231.79993597 215.13970088 234.57468644 215.1328125 237.375 C215.13424759 238.63449463 215.13424759 238.63449463 215.13571167 239.91943359 C215.13639348 241.69824295 215.13453917 243.47705477 215.13037109 245.25585938 C215.12502283 247.98833776 215.13031605 250.72065176 215.13671875 253.453125 C215.13605797 255.1770837 215.13477681 256.90104229 215.1328125 258.625 C215.13584885 259.85935791 215.13584885 259.85935791 215.13894653 261.11865234 C215.11495054 266.88504946 215.11495054 266.88504946 214 268 C213.9689146 269.46457176 213.99217055 270.93038034 214.0390625 272.39453125 C214.08852906 277.9713909 213.37075073 283.21039366 212.375 288.6875 C212.19533691 289.68152832 212.01567383 290.67555664 211.83056641 291.69970703 C208.07672669 311.75070457 202.10878752 330.28717137 194 349 C193.62472168 349.8770459 193.24944336 350.7540918 192.86279297 351.65771484 C187.75712153 363.46529779 181.44059695 373.96321689 173.95874023 384.42211914 C172.82690953 385.9771501 172.82690953 385.9771501 173 388 C171 390 171 390 169 391 C169 391.99 169 392.98 169 394 C168.34 394 167.68 394 167 394 C166.75894531 394.7115625 166.51789063 395.423125 166.26953125 396.15625 C164.81092601 399.42352575 162.98004756 401.75664897 160.6875 404.5 C159.92824219 405.4178125 159.16898437 406.335625 158.38671875 407.28125 C156.02209143 409.9748353 153.54292567 412.47478208 151 415 C149.32635976 416.68443577 147.65320074 418.36934978 145.98046875 420.0546875 C144.54165542 421.50088274 143.10235519 422.94659145 141.6628418 424.39208984 C140.68374233 425.376212 139.70554305 426.36123062 138.72827148 427.34716797 C126.9451932 439.23149933 114.65121256 450.91781613 99.6484375 458.6171875 C95.98433973 460.53030049 92.50141141 462.71111928 88.99609375 464.8984375 C87 466 87 466 85 466 C85 466.66 85 467.32 85 468 C60.54428465 480.36799996 35.95190335 489.7706486 9 495 C8.10665955 495.17692383 7.21331909 495.35384766 6.29290771 495.53613281 C-1.52874501 496.97201 -9.14012585 497.35184345 -17.08203125 497.40625 C-18.06661096 497.41473213 -18.06661096 497.41473213 -19.07108116 497.42338562 C-22.56278365 497.45316507 -26.05432604 497.47173869 -29.54614258 497.48046875 C-32.35690781 497.48913133 -35.16640784 497.51651331 -37.97680664 497.5625 C-79.96609635 498.23498525 -117.63084966 487.04669884 -155 468 C-155 467.34 -155 466.68 -155 466 C-155.88042969 465.73832031 -156.76085937 465.47664063 -157.66796875 465.20703125 C-160.94390285 464.02032124 -163.42501413 462.61676834 -166.3125 460.6875 C-169.58793623 458.53469312 -172.82132047 456.52815674 -176.3125 454.75 C-180.62205178 452.41208764 -184.40324162 449.51820273 -188.25 446.5 C-188.84079346 446.0369043 -189.43158691 445.57380859 -190.0402832 445.09667969 C-193.59462115 442.25803763 -196.79874066 439.24086997 -200 436 C-200.79728516 435.20271484 -201.59457031 434.40542969 -202.41601562 433.58398438 C-208.61067708 427.38932292 -214.80533854 421.19466146 -221 415 C-222.30759277 413.70267944 -222.30759277 413.70267944 -223.64160156 412.37915039 C-226.31897352 409.67821977 -228.80530988 406.84697402 -231.25 403.9375 C-231.69601563 403.42123047 -232.14203125 402.90496094 -232.6015625 402.37304688 C-234.86221928 399.6842354 -236.55801997 397.54433984 -237 394 C-237.66 394 -238.32 394 -239 394 C-239 393.01 -239 392.02 -239 391 C-239.66 390.67 -240.32 390.34 -241 390 C-242.03467955 388.35463803 -243.0245043 386.68112638 -244 385 C-244.84911996 383.6937676 -245.70526812 382.39209083 -246.56640625 381.09375 C-265.08141485 352.86177679 -276.4142641 321.8380303 -282.375 288.6875 C-282.54290039 287.76340332 -282.71080078 286.83930664 -282.88378906 285.88720703 C-283.7902456 280.49839141 -284.13448287 275.37392982 -283.95947266 269.90942383 C-283.77992319 267.98942925 -283.77992319 267.98942925 -285 267 C-285.10099488 264.27275721 -285.13970529 261.57137477 -285.1328125 258.84375 C-285.13376923 258.02628296 -285.13472595 257.20881592 -285.13571167 256.36657715 C-285.13639345 254.63484622 -285.13453929 252.90311276 -285.13037109 251.17138672 C-285.12502279 248.51133518 -285.13031612 245.8514525 -285.13671875 243.19140625 C-285.13605797 241.51302046 -285.1347768 239.83463477 -285.1328125 238.15625 C-285.13483673 237.35521851 -285.13686096 236.55418701 -285.13894653 235.72888184 C-285.11495079 230.11495079 -285.11495079 230.11495079 -284 229 C-283.9689146 227.53542824 -283.99217055 226.06961966 -284.0390625 224.60546875 C-284.0885302 219.02848005 -283.37017647 213.78979084 -282.375 208.3125 C-282.19678711 207.32137207 -282.01857422 206.33024414 -281.83496094 205.30908203 C-275.89092573 173.44161071 -264.84371198 141.09543779 -245.765625 114.59765625 C-243.81262003 112.24780253 -243.81262003 112.24780253 -244 110 C-242 108 -242 108 -240 107 C-240 106.01 -240 105.02 -240 104 C-239.34 103.67 -238.68 103.34 -238 103 C-237.03488891 101.30740776 -236.07249592 99.61315699 -235.12939453 97.90820312 C-233.37057462 94.93653506 -231.19489855 92.34725983 -228.9375 89.75 C-228.18388184 88.87686157 -228.18388184 88.87686157 -227.41503906 87.98608398 C-217.40990708 76.60546797 -206.52342418 65.83710726 -195 56 C-194.01515625 55.14535156 -193.0303125 54.29070313 -192.015625 53.41015625 C-181.01265508 44.07006455 -169.50035138 36.28585186 -156 31 C-156 30.34 -156 29.68 -156 29 C-107.07970979 4.69510908 -54.8404371 -8.3428197 0 0 Z " fill="#4F39F5" transform="translate(285,3)"/>
<path d="M0 0 C0.27193753 2.93673606 0.39713675 4.46806362 -1.40185547 6.87768555 C-2.05041504 7.4581665 -2.69897461 8.03864746 -3.3671875 8.63671875 C-4.08342285 9.2915625 -4.7996582 9.94640625 -5.53759766 10.62109375 C-6.30894043 11.30300781 -7.0802832 11.98492187 -7.875 12.6875 C-9.44368545 14.11741837 -11.01139777 15.54840507 -12.578125 16.98046875 C-13.34060547 17.67060059 -14.10308594 18.36073242 -14.88867188 19.07177734 C-21.18272283 24.81997513 -27.09525788 30.91943713 -32.625 37.40625 C-35.70251185 40.97336601 -35.70251185 40.97336601 -38.57421875 41.23046875 C-39.60160156 41.21628906 -40.62898437 41.20210937 -41.6875 41.1875 C-43.20923828 41.17783203 -43.20923828 41.17783203 -44.76171875 41.16796875 C-48 41 -48 41 -51.37890625 40.5078125 C-74.92113985 37.20631264 -99.84206259 43.66739644 -119.44921875 57.0234375 C-136.85428006 70.46447216 -136.85428006 70.46447216 -147 89 C-147.66 89 -148.32 89 -149 89 C-149.11730469 89.54914063 -149.23460937 90.09828125 -149.35546875 90.6640625 C-150.10259497 93.37182905 -151.17580543 95.80599989 -152.3125 98.375 C-162.2934551 122.01105889 -163.10277446 147.91962636 -154.3125 172.0625 C-153.57252785 173.72243753 -152.79646227 175.36641522 -152 177 C-151.71560059 177.60634277 -151.43120117 178.21268555 -151.13818359 178.83740234 C-142.10189279 197.92412229 -129.55725037 211.73473368 -111 222 C-110.09378906 222.50402344 -109.18757813 223.00804687 -108.25390625 223.52734375 C-85.01842213 235.70152338 -59.13090148 238.21966197 -33.98193359 230.37011719 C-26.47968979 227.89792592 -19.35852786 225.18909879 -12.9921875 220.39453125 C-11 219 -11 219 -8.14453125 217.625 C10.91653976 207.77480678 23.00042954 187.27525527 29.80175781 167.69140625 C32.35924441 159.50448824 34.12381771 151.23707687 34.1328125 142.640625 C34.13474609 140.84238281 34.13474609 140.84238281 34.13671875 139.0078125 C34.13285156 137.76773438 34.12898437 136.52765625 34.125 135.25 C34.12886719 134.02539062 34.13273438 132.80078125 34.13671875 131.5390625 C34.13088172 126.08727469 34.03417379 120.8448457 33.2265625 115.44921875 C32.84302943 111.98182455 32.86111653 111.24833687 34.640625 108.06640625 C35.50171875 107.24011719 36.3628125 106.41382813 37.25 105.5625 C37.95829956 104.85601318 37.95829956 104.85601318 38.6809082 104.13525391 C39.77702297 103.04747526 40.88593909 101.97250938 42.00439453 100.90771484 C45.24118699 97.81347748 48.40225851 94.64361526 51.57128906 91.48022461 C53.30600618 89.75279213 55.04879553 88.03342572 56.79980469 86.32250977 C57.60192383 85.53287842 58.40404297 84.74324707 59.23046875 83.9296875 C59.95645264 83.22054199 60.68243652 82.51139648 61.43041992 81.78076172 C63.22040785 80.1455622 63.22040785 80.1455622 63 78 C65.4190128 75.5809872 66.93675536 74.06516661 70.421875 73.8515625 C74.63790687 75.72961306 75.45848613 79.42272305 77.0625 83.5625 C77.40684082 84.41859863 77.75118164 85.27469727 78.10595703 86.15673828 C81.14632218 93.93264138 83.47751248 101.78600743 85 110 C85.17515137 110.94399658 85.35030273 111.88799316 85.53076172 112.8605957 C91.81727399 149.76932051 83.73984028 189.07773958 62.9140625 220.31640625 C54.91593734 231.53010417 46.60272599 242.13604548 36 251 C35.24589844 251.67675781 34.49179687 252.35351562 33.71484375 253.05078125 C4.62051118 278.36779707 -35.1853865 289.54891662 -73.1875 287.75 C-110.56833131 284.65667099 -144.80432764 268.88503216 -171 242 C-171.56847656 241.47664062 -172.13695312 240.95328125 -172.72265625 240.4140625 C-187.05757419 226.905611 -196.98577106 208.19187448 -204 190 C-204.44085938 188.86691406 -204.88171875 187.73382813 -205.3359375 186.56640625 C-218.24829499 150.84221718 -216.06544984 110.43486441 -200.61767578 75.91064453 C-189.18001326 51.87431053 -173.89859367 32.50497508 -153 16 C-152.34644531 15.48050781 -151.69289062 14.96101563 -151.01953125 14.42578125 C-146.04586984 10.68076779 -140.52680782 7.83323722 -135 5 C-134.40461426 4.6915918 -133.80922852 4.38318359 -133.19580078 4.06542969 C-94.21257521 -15.91932638 -39.83703772 -22.07187225 0 0 Z " fill="#4F39F4" transform="translate(313,114)"/>
<path d="M0 0 C-0.01856049 0.82082062 -0.03712097 1.64164124 -0.0562439 2.48733521 C-0.21982567 10.28316186 -0.31429264 18.07551555 -0.33421898 25.87292671 C-0.34681661 29.88062397 -0.38463979 33.88453977 -0.48339844 37.89111328 C-1.83581313 57.77824348 -1.83581313 57.77824348 5.81185913 75.14254761 C8.1724848 77.2863397 10.56507663 79.15666193 13.27407837 80.83961487 C15 82 15 82 17.50292969 84.77661133 C22.44929721 88.9399308 30.11519651 87.72601363 36.2421875 87.70703125 C37.73578907 87.72015626 39.22937291 87.73546296 40.72293091 87.75285339 C44.63893032 87.79262344 48.55446457 87.80288856 52.47064209 87.80688477 C56.47275837 87.81623147 60.47460307 87.8536545 64.4765625 87.88867188 C72.31771345 87.95316605 80.15859622 87.98647292 88 88 C88.33 88.99 88.66 89.98 89 91 C87.96516479 92.03374756 87.96516479 92.03374756 86.90942383 93.08837891 C84.34066325 95.65708314 81.77847324 98.23226528 79.21720886 100.80844116 C76.70405784 103.33510504 74.18813575 105.8590025 71.67211914 108.3828125 C70.35350508 109.7064551 69.03578997 111.03099387 67.71899414 112.35644531 C54.97397532 125.18278478 54.97397532 125.18278478 48.59594727 130.59765625 C46.05660238 132.82895456 43.87544394 135.28835342 41.625 137.8125 C40.57591868 138.93136275 39.52641296 140.04982766 38.4765625 141.16796875 C35.91546898 143.9271457 33.55664319 146.79463901 31.2109375 149.73828125 C23.03934374 159.50274224 16.58365116 164.25074126 3.75 165.5 C-3.48793089 165.97635023 -10.48425071 166.14938552 -17.68896484 165.23388672 C-29.42758332 164.2028342 -38.43935085 165.40139574 -47.76646423 172.84066391 C-57.87428951 181.50712778 -66.93767309 191.29345968 -75.97283936 201.05023193 C-80.00414249 205.37120464 -84.11883898 209.61121731 -88.2265625 213.859375 C-96.23320528 222.16374808 -104.14537504 230.55187305 -112 239 C-111.67 239.99 -111.34 240.98 -111 242 C-109.73833571 257.08071152 -111.77106696 269.12086261 -120 282 C-120.9987988 283.00119976 -121.99857854 284.00142349 -123 285 C-123.33 285.99 -123.66 286.98 -124 288 C-136.39673453 296.98394303 -150.36896983 303.64982456 -166 302 C-177.24132912 300.14017801 -185.67064887 296.54045557 -195 290 C-195.99 289.34 -196.98 288.68 -198 288 C-199.05395529 286.36691824 -200.04957217 284.69542464 -201 283 C-201.495 282.20980469 -201.99 281.41960937 -202.5 280.60546875 C-210.90236448 267.06103227 -213.25075592 253.07691319 -210.31640625 237.33203125 C-208.51359529 231.5495712 -205.85291517 226.71143152 -202.26953125 221.83984375 C-200.8184835 219.91964092 -200.8184835 219.91964092 -200 217 C-198.22265625 215.24609375 -198.22265625 215.24609375 -196.0625 213.4375 C-193.96656037 211.66869432 -191.94005112 209.94005112 -190 208 C-187.40560274 206.91444199 -184.82574874 205.90305675 -182.1875 204.9375 C-181.47529297 204.66873047 -180.76308594 204.39996094 -180.02929688 204.12304688 C-174.82951008 202.19417129 -170.34669242 200.85782571 -164.74124146 201.2043457 C-154.73053962 201.65549648 -147.91611944 200.57542499 -140.33544922 193.73046875 C-137.4032069 190.96395557 -134.60007627 188.09138344 -131.8046875 185.1875 C-130.2717061 183.65716633 -128.73559988 182.12995723 -127.19656372 180.60571289 C-123.99773513 177.41678822 -120.8344061 174.19747238 -117.69384766 170.95117188 C-113.68925606 166.81580979 -109.61326038 162.76081374 -105.50861931 158.72502136 C-102.33160775 155.58688367 -99.19255209 152.41283253 -96.06372452 149.22671509 C-94.57437043 147.71746499 -93.0745811 146.21843189 -91.56386948 144.7305603 C-82.56412999 135.81391891 -77.19359806 129.23177492 -77.01467896 116.22094727 C-77.0098349 115.15803467 -77.00499084 114.09512207 -77 113 C-76.67 112.67 -76.34 112.34 -76 112 C-75.93399682 110.62652334 -75.93456431 109.24980871 -75.9609375 107.875 C-76.19788498 72.75688857 -76.19788498 72.75688857 -66.69287109 62.79492188 C-63.62757852 59.99369908 -60.46726173 57.3678371 -57.18798828 54.8215332 C-54.34257008 52.45267969 -52.06712074 49.76865825 -49.69335938 46.93969727 C-46.91485893 43.75700032 -43.76488647 41.00587836 -40.625 38.1875 C-36.36275189 34.28866734 -32.35599934 30.45773337 -28.8125 25.875 C-24.18682443 19.95449246 -18.96120046 14.65677821 -13.6875 9.3125 C-12.80231689 8.40161621 -11.91713379 7.49073242 -11.00512695 6.55224609 C-9.73995239 5.2830835 -9.73995239 5.2830835 -8.44921875 3.98828125 C-7.68955811 3.22040283 -6.92989746 2.45252441 -6.1472168 1.66137695 C-4 0 -4 0 0 0 Z " fill="#4F39F4" transform="translate(411,0)"/>
<path d="M0 0 C0.33 2.64 0.66 5.28 1 8 C-0.32 8.33 -1.64 8.66 -3 9 C-3 11.64 -3 14.28 -3 17 C-3.66 17 -4.32 17 -5 17 C-4.91621094 17.69867188 -4.83242187 18.39734375 -4.74609375 19.1171875 C-4.64425781 20.02726562 -4.54242188 20.93734375 -4.4375 21.875 C-4.33308594 22.77992188 -4.22867187 23.68484375 -4.12109375 24.6171875 C-4 27 -4 27 -5 29 C-5.09821132 31.20919874 -5.13078185 33.42143275 -5.1328125 35.6328125 C-5.13408646 36.29768677 -5.13536041 36.96256104 -5.13667297 37.64758301 C-5.13847973 39.80676636 -5.13212863 41.96582905 -5.125 44.125 C-5.12416916 45.2182962 -5.12416916 45.2182962 -5.12332153 46.3336792 C-5.1149944 55.59780884 -4.97655385 64.80854244 -4.12109375 74.0390625 C-3.99293709 77.17269957 -4.378342 79.93315389 -5 83 C-5.33 83 -5.66 83 -6 83 C-6.87896977 77.9459238 -7.06146869 73.16826706 -6.9375 68.0390625 C-6.76680252 66.00482706 -6.76680252 66.00482706 -8 65 C-8.10099488 62.27275721 -8.13970529 59.57137477 -8.1328125 56.84375 C-8.13376923 56.02628296 -8.13472595 55.20881592 -8.13571167 54.36657715 C-8.13639345 52.63484622 -8.13453929 50.90311276 -8.13037109 49.17138672 C-8.12502279 46.51133518 -8.13031612 43.8514525 -8.13671875 41.19140625 C-8.13605797 39.51302046 -8.1347768 37.83463477 -8.1328125 36.15625 C-8.13483673 35.35521851 -8.13686096 34.55418701 -8.13894653 33.72888184 C-8.11495079 28.11495079 -8.11495079 28.11495079 -7 27 C-7.00614419 25.64520639 -7.05723147 24.29061156 -7.125 22.9375 C-7.23369732 15.46999437 -5.51631836 8.27471784 -4 1 C-1 0 -1 0 0 0 Z " fill="#3D37D4" transform="translate(8,205)"/>
<path d="M0 0 C2.22337519 3.33506279 2.75550146 5.77926101 3.5625 9.6875 C3.81128906 10.86699219 4.06007813 12.04648438 4.31640625 13.26171875 C8.59655415 36.66801328 6.79001782 61.27485028 0 84 C-0.33 84 -0.66 84 -1 84 C-1.23562315 76.69568241 -0.36838164 70.17802427 1.49765015 63.11686707 C2.95332921 57.28545517 3.22424274 51.91483652 3.046875 45.92578125 C3.02659241 44.99831589 3.00630981 44.07085052 2.9854126 43.11528015 C2.94014244 41.16973868 2.88943072 39.22431681 2.83349609 37.27905273 C2.74994487 34.3105414 2.68823399 31.34213058 2.62890625 28.37304688 C2.58202796 26.47392583 2.53389423 24.57483527 2.484375 22.67578125 C2.46654968 21.79440994 2.44872437 20.91303864 2.43035889 20.00495911 C2.28038733 15.26860602 1.66248325 11.48546617 0 7 C-0.07522969 4.66787973 -0.09325876 2.3314689 0 0 Z " fill="#4D3BDF" transform="translate(394,212)"/>
<path d="M0 0 C9.20591829 1.48440549 18.15416728 3.45399973 27.125 6 C28.01276123 6.2489502 28.90052246 6.49790039 29.81518555 6.75439453 C34.48132535 8.10938083 38.71982135 9.6423934 43 12 C43 13.65 43 15.3 43 17 C41.3125 18.1875 41.3125 18.1875 39 19 C36.25 17.625 36.25 17.625 34 16 C34.66666667 14 35.33333333 12 36 10 C30.555 9.505 30.555 9.505 25 9 C25 8.34 25 7.68 25 7 C21.65747276 6.92572162 19.1964086 6.93453047 16 8 C15.01 8 14.02 8 13 8 C12.67 7.67 12.34 7.34 12 7 C10.32457024 7.28604898 8.65614657 7.61781233 7 8 C7.33 7.34 7.66 6.68 8 6 C7.34 5.67 6.68 5.34 6 5 C6 4.34 6 3.68 6 3 C3.69 3 1.38 3 -1 3 C-0.67 2.01 -0.34 1.02 0 0 Z " fill="#5341E4" transform="translate(270,102)"/>
<path d="M0 0 C1.40958984 -0.00580078 1.40958984 -0.00580078 2.84765625 -0.01171875 C4.19150391 -0.00978516 4.19150391 -0.00978516 5.5625 -0.0078125 C6.36816406 -0.00668457 7.17382812 -0.00555664 8.00390625 -0.00439453 C10 0.125 10 0.125 12 1.125 C15.44097783 1.38940811 18.87548501 1.56959913 22.32226562 1.73046875 C27.89926145 2.02426145 27.89926145 2.02426145 29 3.125 C30.51469448 3.35692865 32.03754562 3.53715238 33.5625 3.6875 C34.80193359 3.81318359 34.80193359 3.81318359 36.06640625 3.94140625 C36.70449219 4.00199219 37.34257812 4.06257813 38 4.125 C38 4.785 38 5.445 38 6.125 C37.2565332 6.03412109 36.51306641 5.94324219 35.74707031 5.84960938 C12.58108231 3.06540743 -8.31322773 2.47256218 -31.41210938 5.76123047 C-34.93677482 6.25667872 -38.46695051 6.69383401 -42 7.125 C-41.67 6.135 -41.34 5.145 -41 4.125 C-40.09121094 4.05152344 -40.09121094 4.05152344 -39.1640625 3.9765625 C-33.94828091 3.5111543 -28.91820411 2.79201808 -23.8125 1.625 C-15.90639315 0.21946989 -8.01340992 -0.03409962 0 0 Z " fill="#6655DF" transform="translate(248,50.875)"/>
<path d="M0 0 C1.93166016 0.01740234 1.93166016 0.01740234 3.90234375 0.03515625 C5.19269531 0.04417969 6.48304688 0.05320313 7.8125 0.0625 C8.81152344 0.07410156 9.81054688 0.08570313 10.83984375 0.09765625 C10.83984375 0.42765625 10.83984375 0.75765625 10.83984375 1.09765625 C9.18984375 1.42765625 7.53984375 1.75765625 5.83984375 2.09765625 C5.83984375 2.42765625 5.83984375 2.75765625 5.83984375 3.09765625 C1.64258006 3.5108906 -2.55517692 3.91860485 -6.75344849 4.32144165 C-8.23002281 4.46363901 -9.70648497 4.60700607 -11.18283081 4.7515564 C-25.47693696 6.14753224 -25.47693696 6.14753224 -32.26953125 6.30859375 C-33.55380005 6.3406189 -33.55380005 6.3406189 -34.86401367 6.37329102 C-36.3796178 6.39697968 -37.89588306 6.39686443 -39.41137695 6.36694336 C-45.32018105 6.45843727 -48.23453831 9.05876254 -52.16015625 13.09765625 C-52.16015625 11.77765625 -52.16015625 10.45765625 -52.16015625 9.09765625 C-49.78515625 7.47265625 -49.78515625 7.47265625 -47.16015625 6.09765625 C-46.50015625 5.43765625 -45.84015625 4.77765625 -45.16015625 4.09765625 C-42.26047868 3.79090393 -39.44232447 3.58592254 -36.53515625 3.47265625 C-35.73335938 3.43398437 -34.9315625 3.3953125 -34.10546875 3.35546875 C-32.12408069 3.26111694 -30.1421498 3.1782941 -28.16015625 3.09765625 C-28.16015625 2.76765625 -28.16015625 2.43765625 -28.16015625 2.09765625 C-27.43836182 2.0726001 -26.71656738 2.04754395 -25.97290039 2.02172852 C-22.72262125 1.90614323 -19.47265937 1.78324851 -16.22265625 1.66015625 C-15.08634766 1.62083984 -13.95003906 1.58152344 -12.77929688 1.54101562 C-11.15991211 1.47817383 -11.15991211 1.47817383 -9.5078125 1.4140625 C-8.50758057 1.37740479 -7.50734863 1.34074707 -6.47680664 1.30297852 C-3.37506187 1.02807417 -3.41427272 0.10550905 0 0 Z " fill="#8779E3" transform="translate(415.16015625,160.90234375)"/>
<path d="M0 0 C0.66 0.33 1.32 0.66 2 1 C1.87882812 1.7528125 1.75765625 2.505625 1.6328125 3.28125 C1.2709007 5.57521405 0.92058797 7.8710207 0.578125 10.16796875 C0.21880812 12.54965701 -0.16258227 14.92825689 -0.578125 17.30078125 C-2.06887388 26.87351871 -2.18833602 36.39520064 -2.1875 46.0625 C-2.18840637 46.73664948 -2.18931274 47.41079895 -2.19024658 48.1053772 C-2.18877697 57.78059836 -1.75172339 67.35908271 -1 77 C-2.97537231 75.81919861 -2.97537231 75.81919861 -5 74 C-5.45651245 71.66993713 -5.45651245 71.66993713 -5.39404297 68.89282227 C-5.38017548 67.85066055 -5.36630798 66.80849884 -5.35202026 65.73475647 C-5.29765305 64.04267311 -5.29765305 64.04267311 -5.2421875 62.31640625 C-5.21907501 61.15052475 -5.19596252 59.98464325 -5.17214966 58.78343201 C-5.1191001 56.30925576 -5.05622991 53.83527379 -4.984375 51.36157227 C-4.87634007 47.60904651 -4.79871891 43.85688454 -4.7265625 40.10351562 C-4.67108438 37.69527004 -4.61384687 35.28706422 -4.5546875 32.87890625 C-4.53058807 31.76906876 -4.50648865 30.65923126 -4.48165894 29.51576233 C-3.88040991 9.88040991 -3.88040991 9.88040991 -1 7 C-0.63239269 4.67182036 -0.29758419 2.3381615 0 0 Z " fill="#6959DE" transform="translate(55,205)"/>
<path d="M0 0 C0.33 0.99 0.66 1.98 1 3 C-0.23821747 4.49889483 -1.48257055 5.99419174 -2.78515625 7.4375 C-4.39956217 9.51390632 -4.77145471 11.40982002 -5 14 C-6.32 14.33 -7.64 14.66 -9 15 C-9 15.66 -9 16.32 -9 17 C-9.66 17 -10.32 17 -11 17 C-11.268125 17.7425 -11.53625 18.485 -11.8125 19.25 C-12.95297649 21.89110345 -14.28677072 23.71569429 -16 26 C-17.34818091 28.76731871 -18 30.5966128 -18 33.6875 C-18 34.450625 -18 35.21375 -18 36 C-18.66 36.66 -19.32 37.32 -20 38 C-19.67 38.66 -19.34 39.32 -19 40 C-20.32 40 -21.64 40 -23 40 C-23.33 40.99 -23.66 41.98 -24 43 C-24.66 43 -25.32 43 -26 43 C-24.50422298 38.0140766 -22.42501353 33.58063924 -20 29 C-19.60844727 28.26031982 -19.21689453 27.52063965 -18.81347656 26.75854492 C-13.56416092 17.07843341 -7.09996483 8.39658961 0 0 Z " fill="#5846D6" transform="translate(138,150)"/>
<path d="M0 0 C1.4540625 0.0309375 1.4540625 0.0309375 2.9375 0.0625 C-4.35402505 9.52177575 -14.72682685 16.22931586 -25.0625 22.0625 C-25.7225 22.0625 -26.3825 22.0625 -27.0625 22.0625 C-26.5675 20.5775 -26.5675 20.5775 -26.0625 19.0625 C-25.4025 19.0625 -24.7425 19.0625 -24.0625 19.0625 C-23.7325 18.0725 -23.4025 17.0825 -23.0625 16.0625 C-22.7325 15.7325 -22.4025 15.4025 -22.0625 15.0625 C-21.794375 14.423125 -21.52625 13.78375 -21.25 13.125 C-19.84072593 10.67731345 -18.64102594 10.09391038 -16.0625 9.0625 C-16.0625 9.7225 -16.0625 10.3825 -16.0625 11.0625 C-15.51980469 10.77375 -14.97710937 10.485 -14.41796875 10.1875 C-13.70253906 9.81625 -12.98710937 9.445 -12.25 9.0625 C-11.54230469 8.69125 -10.83460938 8.32 -10.10546875 7.9375 C-8.0625 7.0625 -8.0625 7.0625 -5.0625 7.0625 C-5.0625 6.4025 -5.0625 5.7425 -5.0625 5.0625 C-4.4025 5.0625 -3.7425 5.0625 -3.0625 5.0625 C-3.248125 4.423125 -3.43375 3.78375 -3.625 3.125 C-3.769375 2.444375 -3.91375 1.76375 -4.0625 1.0625 C-3.0625 0.0625 -3.0625 0.0625 0 0 Z " fill="#4F3CE9" transform="translate(350.0625,359.9375)"/>
<path d="M0 0 C0.33 0 0.66 0 1 0 C2.03733731 8.23818714 2.33998217 16.43842444 2.60546875 24.73242188 C2.66154297 26.28606445 2.66154297 26.28606445 2.71875 27.87109375 C2.74904297 28.80880615 2.77933594 29.74651855 2.81054688 30.71264648 C2.85968916 33.02926009 2.85968916 33.02926009 4 35 C3.44140625 37.1640625 3.44140625 37.1640625 2.5625 39.625 C2.27503906 40.44226563 1.98757813 41.25953125 1.69140625 42.1015625 C1.46324219 42.72804688 1.23507812 43.35453125 1 44 C0.34 44 -0.32 44 -1 44 C-0.99476318 43.08299316 -0.98952637 42.16598633 -0.98413086 41.22119141 C-0.96694563 37.77326816 -0.95448076 34.32539137 -0.94506836 30.87744141 C-0.94008292 29.39371008 -0.93329215 27.90998354 -0.92456055 26.42626953 C-0.85359017 15.08081157 -0.85359017 15.08081157 -1.97875977 3.79833984 C-1.98927368 2.90816162 -1.98927368 2.90816162 -2 2 C-1.34 1.34 -0.68 0.68 0 0 Z " fill="#7262E4" transform="translate(348,223)"/>
<path d="M0 0 C9.29202841 3.13686806 18.3932699 6.22083292 27 11 C26.23163306 15.20393865 24.45167403 16.52187506 21 19 C20.375 16.125 20.375 16.125 20 13 C20.66 12.34 21.32 11.68 22 11 C20.68 10.67 19.36 10.34 18 10 C17.67 12.64 17.34 15.28 17 18 C15.68 17.34 14.36 16.68 13 16 C13.33 15.05125 13.66 14.1025 14 13.125 C15.10159191 10.22937548 15.10159191 10.22937548 15 8 C13.824375 7.814375 13.824375 7.814375 12.625 7.625 C10 7 10 7 8 5 C6.03511169 4.11221308 6.03511169 4.11221308 3.875 3.375 C3.15054687 3.11460938 2.42609375 2.85421875 1.6796875 2.5859375 C1.12539063 2.39257812 0.57109375 2.19921875 0 2 C0 1.34 0 0.68 0 0 Z " fill="#4B38DF" transform="translate(328,13)"/>
<path d="M0 0 C1.02931641 -0.01224609 2.05863281 -0.02449219 3.11914062 -0.03710938 C8.75376182 -0.04793824 13.49561892 0.28485373 18.8125 2.1875 C18.8125 2.5175 18.8125 2.8475 18.8125 3.1875 C17.79434204 3.16393433 17.79434204 3.16393433 16.75561523 3.13989258 C-0.96841639 2.76479225 -0.96841639 2.76479225 -18.39453125 5.53125 C-21.1875 6.1875 -21.1875 6.1875 -25.1875 6.1875 C-25.1875 5.5275 -25.1875 4.8675 -25.1875 4.1875 C-22.15489103 2.16576068 -21.10059963 1.89411562 -17.625 1.625 C-11.58463432 1.13899357 -6.26470916 0.00385047 0 0 Z " fill="#7465E2" transform="translate(246.1875,150.8125)"/>
<path d="M0 0 C0.66 0.33 1.32 0.66 2 1 C1.45730469 1.30292969 0.91460937 1.60585937 0.35546875 1.91796875 C-4.04880171 4.49704605 -6.5694869 6.39481729 -9 11 C-9.99 11.33 -10.98 11.66 -12 12 C-13.70855022 15.00007271 -13.70855022 15.00007271 -15 18 C-16.32 18 -17.64 18 -19 18 C-19 18.66 -19 19.32 -19 20 C-19.78375 20.28875 -20.5675 20.5775 -21.375 20.875 C-24.09671632 21.84912254 -24.09671632 21.84912254 -26 24 C-26.66 23.34 -27.32 22.68 -28 22 C-8.50172216 3.40068886 -8.50172216 3.40068886 0 0 Z " fill="#5442DF" transform="translate(171,123)"/>
<path d="M0 0 C0.33 0 0.66 0 1 0 C1.53579139 20.29825076 0.86125948 39.38326218 -5 59 C-5.33 59 -5.66 59 -6 59 C-6.21498961 52.33532217 -5.5030933 46.48272891 -4 40 C-3.64412464 38.45872687 -3.28989788 36.91707194 -2.9375 35.375 C-2.78152344 34.72273438 -2.62554687 34.07046875 -2.46484375 33.3984375 C-1.02594505 25.97420386 -0.72530128 18.53945004 -0.4375 11 C-0.37272461 9.40865234 -0.37272461 9.40865234 -0.30664062 7.78515625 C-0.20144004 5.19020849 -0.09929881 2.59517916 0 0 Z " fill="#7D70E8" transform="translate(399,237)"/>
<path d="M0 0 C0.33 1.32 0.66 2.64 1 4 C1.99 3.67 2.98 3.34 4 3 C4.33 4.65 4.66 6.3 5 8 C3.68 7.67 2.36 7.34 1 7 C-0.06723961 10.46222615 -0.10173486 13.64039266 -0.0625 17.25 C-0.05347656 18.32765625 -0.04445312 19.4053125 -0.03515625 20.515625 C-0.02355469 21.33546875 -0.01195312 22.1553125 0 23 C0.66 23.33 1.32 23.66 2 24 C2.33 23.34 2.66 22.68 3 22 C3 26 3 26 2 28 C1.40303881 33.01447396 2.75635421 35.95781679 5.22265625 40.16796875 C6 42 6 42 5 45 C4.19770863 43.50565577 3.40878133 42.00413528 2.625 40.5 C2.18414062 39.6646875 1.74328125 38.829375 1.2890625 37.96875 C-1.76676391 30.93108917 -2.31844533 24.50641243 -2.25 16.9375 C-2.25773438 16.07833984 -2.26546875 15.21917969 -2.2734375 14.33398438 C-2.25766139 9.17125224 -1.67144493 4.88831314 0 0 Z " fill="#4F3CDE" transform="translate(202,234)"/>
<path d="M0 0 C0.33 0.66 0.66 1.32 1 2 C1.99 2.33 2.98 2.66 4 3 C4.08564209 3.73637695 4.17128418 4.47275391 4.25952148 5.23144531 C4.64948539 8.57128469 5.04344826 11.91064056 5.4375 15.25 C5.63956055 16.98830078 5.63956055 16.98830078 5.84570312 18.76171875 C5.97783203 19.87675781 6.10996094 20.99179688 6.24609375 22.140625 C6.36654053 23.16704102 6.4869873 24.19345703 6.61108398 25.25097656 C6.9391384 27.56980436 7.41702992 29.73757995 8 32 C8.06548492 33.58211573 8.08578381 35.16670081 8.0625 36.75 C8.05347656 37.54921875 8.04445313 38.3484375 8.03515625 39.171875 C8.02355469 39.77515625 8.01195312 40.3784375 8 41 C7.34 41 6.68 41 6 41 C5.88724731 40.06486572 5.88724731 40.06486572 5.7722168 39.11083984 C3.78365404 22.77143506 3.78365404 22.77143506 0.55078125 6.64453125 C0 4 0 4 0 0 Z " fill="#6251DF" transform="translate(441,195)"/>
<path d="M0 0 C0.33 0.66 0.66 1.32 1 2 C-2.13718316 9.53775682 -7.12138751 16.35602016 -11.74731445 23.04760742 C-14.17552391 26.23060844 -14.17552391 26.23060844 -15 30 C-15.99 30.33 -16.98 30.66 -18 31 C-17.01 27.535 -17.01 27.535 -16 24 C-15.34 24 -14.68 24 -14 24 C-13.67 22.35 -13.34 20.7 -13 19 C-13.66 18.67 -14.32 18.34 -15 18 C-14.01 17.67 -13.02 17.34 -12 17 C-11.30062468 15.68352881 -10.63270867 14.34977849 -10 13 C-9.34 12.67 -8.68 12.34 -8 12 C-6.86649466 9.98330173 -6.86649466 9.98330173 -6 8 C-5.34 8 -4.68 8 -4 8 C-4 7.01 -4 6.02 -4 5 C-3.34 5 -2.68 5 -2 5 C-2 3.68 -2 2.36 -2 1 C-1.34 0.67 -0.68 0.34 0 0 Z " fill="#4E3AE4" transform="translate(473,361)"/>
<path d="M0 0 C0.495 1.98 0.495 1.98 1 4 C0 5 -1 6 -2 7 C-2.474375 7.515625 -2.94875 8.03125 -3.4375 8.5625 C-5 10 -5 10 -7 10 C-7.33 10.99 -7.66 11.98 -8 13 C-9.32338086 13.68621084 -10.65869632 14.34951814 -12 15 C-13.48846891 16.32802894 -14.92763208 17.71231254 -16.328125 19.1328125 C-17.12734375 19.93847656 -17.9265625 20.74414062 -18.75 21.57421875 C-19.575 22.41597656 -20.4 23.25773437 -21.25 24.125 C-22.09046875 24.97449219 -22.9309375 25.82398438 -23.796875 26.69921875 C-25.86915683 28.79504923 -27.93662393 30.89540713 -30 33 C-30.66 32.67 -31.32 32.34 -32 32 C-21.44 21.44 -10.88 10.88 0 0 Z " fill="#4E40D1" transform="translate(318,144)"/>
<path d="M0 0 C0.66 0 1.32 0 2 0 C2.29132813 0.95519531 2.58265625 1.91039062 2.8828125 2.89453125 C5.23163271 10.37369481 7.83803791 17.14268857 11.86328125 23.92578125 C13 26 13 26 13 28 C12.01 27.67 11.02 27.34 10 27 C8.8125 23.9375 8.8125 23.9375 8 21 C7.34 21 6.68 21 6 21 C6 20.01 6 19.02 6 18 C5.01 18 4.02 18 3 18 C2.30710631 14.27569643 1.88855404 10.78916254 2 7 C1.34 7 0.68 7 0 7 C0 4.69 0 2.38 0 0 Z " fill="#6554E1" transform="translate(153,274)"/>
<path d="M0 0 C0 0.33 0 0.66 0 1 C-0.85464844 1.06058594 -1.70929688 1.12117187 -2.58984375 1.18359375 C-3.69457031 1.26738281 -4.79929688 1.35117188 -5.9375 1.4375 C-7.03964844 1.51871094 -8.14179688 1.59992187 -9.27734375 1.68359375 C-11.91109903 1.70418084 -11.91109903 1.70418084 -13 3 C-14.53610616 3.21187671 -16.07986899 3.36929405 -17.625 3.5 C-18.97464844 3.62955078 -18.97464844 3.62955078 -20.3515625 3.76171875 C-21.94915149 3.90545463 -23.54801292 4.03686632 -25.1484375 4.14453125 C-27.20883206 4.28962861 -27.20883206 4.28962861 -30 5 C-31.51294288 6.93597032 -31.51294288 6.93597032 -32 9 C-34.31 8.67 -36.62 8.34 -39 8 C-39 7.34 -39 6.68 -39 6 C-7.52112115 -1.67136026 -7.52112115 -1.67136026 0 0 Z M-36 9 C-34 10 -34 10 -34 10 Z " fill="#5445CC" transform="translate(222,4)"/>
<path d="M0 0 C0 0.66 0 1.32 0 2 C-1.155 2.495 -2.31 2.99 -3.5 3.5 C-8.16423228 5.58623808 -12.77978306 7.76661684 -17.375 10 C-18.4278418 10.49790039 -18.4278418 10.49790039 -19.50195312 11.00585938 C-23.23434978 12.84140517 -25.82915424 14.28801946 -28 18 C-28.99 17.67 -29.98 17.34 -31 17 C-31.33 16.34 -31.66 15.68 -32 15 C-31.34 15 -30.68 15 -30 15 C-30 14.34 -30 13.68 -30 13 C-25.8972321 11.01792408 -21.79255305 9.03983829 -17.6875 7.0625 C-16.52025391 6.49853516 -15.35300781 5.93457031 -14.15039062 5.35351562 C-13.03212891 4.81533203 -11.91386719 4.27714844 -10.76171875 3.72265625 C-9.73006592 3.22515869 -8.69841309 2.72766113 -7.63549805 2.21508789 C-2.8310227 0 -2.8310227 0 0 0 Z " fill="#523FDD" transform="translate(159,19)"/>
<path d="M0 0 C2.53553757 3.15990418 4.37198334 6.44491495 6.1875 10.0625 C6.98220703 11.62677734 6.98220703 11.62677734 7.79296875 13.22265625 C9 16 9 16 9 19 C9.66 19 10.32 19 11 19 C11 19.66 11 20.32 11 21 C9.68 20.34 8.36 19.68 7 19 C7 18.01 7 17.02 7 16 C6.34 16 5.68 16 5 16 C5 14.68 5 13.36 5 12 C3.02 12.33 1.04 12.66 -1 13 C-2.51403812 8.15507803 -1.36602172 4.7408989 0 0 Z " fill="#5440ED" transform="translate(68,329)"/>
<path d="M0 0 C21.45 0 42.9 0 65 0 C65.495 1.485 65.495 1.485 66 3 C65.01 3.33 64.02 3.66 63 4 C63 3.01 63 2.02 63 1 C42.21 1 21.42 1 0 1 C0 0.67 0 0.34 0 0 Z " fill="#5443C9" transform="translate(434,88)"/>
<path d="M0 0 C0.33 0 0.66 0 1 0 C1.25 2.8125 1.25 2.8125 1 6 C-0.9375 7.6875 -0.9375 7.6875 -3 9 C-3.33 9.99 -3.66 10.98 -4 12 C-5.32 12 -6.64 12 -8 12 C-8 12.66 -8 13.32 -8 14 C-8.99 14.33 -9.98 14.66 -11 15 C-12.39712274 16.95597184 -13.73779907 18.95436401 -15 21 C-15.66 20.67 -16.32 20.34 -17 20 C-11.74250656 13.00127883 -6.19751301 6.19751301 0 0 Z " fill="#5542E6" transform="translate(67,81)"/>
<path d="M0 0 C1.32 0 2.64 0 4 0 C4.33 0.66 4.66 1.32 5 2 C8.3 1.67 11.6 1.34 15 1 C11.745987 3.169342 8.99869282 4.0390053 5.25 5.125 C4.05890625 5.47820312 2.8678125 5.83140625 1.640625 6.1953125 C-2.0279886 7.00618632 -5.25637566 7.14398555 -9 7 C-7.68 6.67 -6.36 6.34 -5 6 C-4.67 4.35 -4.34 2.7 -4 1 C-3.01 1.33 -2.02 1.66 -1 2 C-0.67 1.34 -0.34 0.68 0 0 Z " fill="#5745E5" transform="translate(283,392)"/>
<path d="M0 0 C1.02205917 3.78909739 1.35200029 7.05759674 1 11 C-0.33333333 12.33333333 -1.66666667 13.66666667 -3 15 C-3.93743531 17.95652676 -4.50329014 20.94131295 -5 24 C-6.32 24.33 -7.64 24.66 -9 25 C-10 22 -10 22 -8.671875 18.92578125 C-8.03992097 17.71678204 -7.39879697 16.51254478 -6.75 15.3125 C-4.131763 10.29890983 -1.82192023 5.35858891 0 0 Z " fill="#7062E4" transform="translate(435,319)"/>
<path d="M0 0 C0.33 2.64 0.66 5.28 1 8 C-0.32 8.33 -1.64 8.66 -3 9 C-3 11.64 -3 14.28 -3 17 C-4.32 17.33 -5.64 17.66 -7 18 C-6.69095829 15.72869344 -6.37765093 13.45796695 -6.0625 11.1875 C-5.88847656 9.92292969 -5.71445313 8.65835938 -5.53515625 7.35546875 C-5 4 -5 4 -4 1 C-1 0 -1 0 0 0 Z " fill="#6855E5" transform="translate(8,205)"/>
<path d="M0 0 C0.66 0 1.32 0 2 0 C2.30905559 9.49487438 1.68463578 17.03773629 -4.375 24.75 C-6.49255542 26.37888879 -8.38377923 26.64645665 -11 27 C-10.06409496 25.8944811 -9.12620142 24.79064547 -8.1875 23.6875 C-7.40439453 22.76517578 -7.40439453 22.76517578 -6.60546875 21.82421875 C-5 20 -5 20 -3.4453125 18.63671875 C-1.70856202 16.66996618 -1.52218532 15.57312672 -1.26953125 12.98828125 C-1.18896484 12.23095703 -1.10839844 11.47363281 -1.02539062 10.69335938 C-0.92000977 9.51483398 -0.92000977 9.51483398 -0.8125 8.3125 C-0.73064453 7.51521484 -0.64878906 6.71792969 -0.56445312 5.89648438 C-0.36449155 3.932156 -0.18067746 1.96619588 0 0 Z " fill="#7261D9" transform="translate(334,113)"/>
<path d="M0 0 C1.65322266 0.19916016 1.65322266 0.19916016 3.33984375 0.40234375 C13.88514007 1.64062605 24.39521311 2.48989633 35 3 C35.495 3.99 35.495 3.99 36 5 C32.85418577 5.02888514 29.70840531 5.04675923 26.5625 5.0625 C25.21575195 5.07506836 25.21575195 5.07506836 23.84179688 5.08789062 C22.56079102 5.09272461 22.56079102 5.09272461 21.25390625 5.09765625 C20.06776733 5.10551147 20.06776733 5.10551147 18.85766602 5.11352539 C17 5 17 5 16 4 C12.70222832 3.7547112 9.40541591 3.61574923 6.1015625 3.4765625 C2.87350701 2.98056405 1.90781966 2.56663508 0 0 Z " fill="#5D4ED7" transform="translate(213,446)"/>
<path d="M0 0 C0.99 0 1.98 0 3 0 C2.86722656 0.71285156 2.73445312 1.42570313 2.59765625 2.16015625 C2.42105469 3.11792969 2.24445313 4.07570312 2.0625 5.0625 C1.88847656 6.00222656 1.71445313 6.94195312 1.53515625 7.91015625 C0.28874905 15.1065657 -0.27322694 22.14876721 -0.5625 29.4375 C-0.60568359 30.45521484 -0.64886719 31.47292969 -0.69335938 32.52148438 C-0.79868582 35.01421028 -0.90081672 37.50702338 -1 40 C-1.33 40 -1.66 40 -2 40 C-2.05001046 35.91068318 -2.08600357 31.82148859 -2.10986328 27.73193359 C-2.11982603 26.34518324 -2.13340118 24.95845335 -2.15087891 23.57177734 C-2.24983708 15.50959656 -2.07347869 7.84275197 0 0 Z " fill="#8E80ED" transform="translate(153,222)"/>
<path d="M0 0 C1.65 0 3.3 0 5 0 C4.44495754 3.64742186 3.22618728 4.98226031 0.375 7.25 C-3.89484744 10.803068 -7.45547947 14.73549873 -11 19 C-11.671875 17.2265625 -11.671875 17.2265625 -12 15 C-10.890625 13.1484375 -10.890625 13.1484375 -9.25 11.375 C-8.71890625 10.78460938 -8.1878125 10.19421875 -7.640625 9.5859375 C-6 8 -6 8 -3 6 C-1.93753473 4.03247172 -0.92862192 2.03412421 0 0 Z " fill="#5849E1" transform="translate(115,101)"/>
<path d="M0 0 C0.8046875 1.68359375 0.8046875 1.68359375 1 4 C-1.0546875 6.47265625 -1.0546875 6.47265625 -3.875 9.0625 C-7.76619503 12.48726838 -7.76619503 12.48726838 -10 17 C-11.98 16.67 -13.96 16.34 -16 16 C-16 15.67 -16 15.34 -16 15 C-14.35 15 -12.7 15 -11 15 C-10.7525 13.906875 -10.505 12.81375 -10.25 11.6875 C-8.92004396 7.76412967 -8.24855921 7.20063689 -5 5 C-4.20376178 2.90584196 -4.20376178 2.90584196 -4 1 C-2.68 0.67 -1.36 0.34 0 0 Z " fill="#523FE7" transform="translate(328,49)"/>
<path d="M0 0 C0.99 0.33 1.98 0.66 3 1 C1.49907226 2.66400641 -0.02672715 4.3055983 -1.5625 5.9375 C-2.40941406 6.85402344 -3.25632812 7.77054688 -4.12890625 8.71484375 C-8.10284109 11.87777148 -11.45993256 12.1263918 -16.43359375 11.87890625 C-18.2890625 11.5859375 -20.14453125 11.29296875 -22 11 C-22 10.67 -22 10.34 -22 10 C-17.05 9.67 -12.1 9.34 -7 9 C-7.33 7.68 -7.66 6.36 -8 5 C-7.34 4.34 -6.68 3.68 -6 3 C-4.68 3 -3.36 3 -2 3 C-2 2.34 -2 1.68 -2 1 C-1.34 0.67 -0.68 0.34 0 0 Z " fill="#5A4AD7" transform="translate(435,152)"/>
<path d="M0 0 C1.98 0.99 1.98 0.99 4 2 C4 3.65 4 5.3 4 7 C4.66 7 5.32 7 6 7 C6.67154933 8.28913487 7.33708859 9.58140204 8 10.875 C8.37125 11.59429687 8.7425 12.31359375 9.125 13.0546875 C10 15 10 15 10 17 C10.66 17 11.32 17 12 17 C13.05771739 18.63064764 14.05273046 20.30280873 15 22 C15.66 22.99 16.32 23.98 17 25 C16.67 25.99 16.34 26.98 16 28 C11.57293806 22.07827084 7.69382528 15.93127009 4.0625 9.5 C3.4603064 8.44039063 3.4603064 8.44039063 2.84594727 7.359375 C0 2.2526285 0 2.2526285 0 0 Z " fill="#5D4ACB" transform="translate(115,316)"/>
<path d="M0 0 C5.27272727 5.09090909 5.27272727 5.09090909 7 8 C6.6875 10.25 6.6875 10.25 6 12 C3.69 12 1.38 12 -1 12 C-0.67 11.01 -0.34 10.02 0 9 C-0.66 8.67 -1.32 8.34 -2 8 C-1.67 7.05125 -1.34 6.1025 -1 5.125 C0.10159191 2.22937548 0.10159191 2.22937548 0 0 Z " fill="#4C38E7" transform="translate(165,302)"/>
<path d="M0 0 C0.78552246 0.01047363 1.57104492 0.02094727 2.38037109 0.03173828 C3.23115234 0.03818359 4.08193359 0.04462891 4.95849609 0.05126953 C6.29267578 0.07640625 6.29267578 0.07640625 7.65380859 0.10205078 C8.55099609 0.11107422 9.44818359 0.12009766 10.37255859 0.12939453 C12.59157445 0.15300108 14.81005937 0.18592768 17.02880859 0.22705078 C17.02880859 0.88705078 17.02880859 1.54705078 17.02880859 2.22705078 C15.09328125 2.23091797 15.09328125 2.23091797 13.11865234 2.23486328 C11.40117049 2.27240387 9.68372323 2.31155169 7.96630859 2.35205078 C7.11875 2.34947266 6.27119141 2.34689453 5.39794922 2.34423828 C-0.50967718 2.52671323 -3.55333079 3.79282517 -7.78930664 7.9453125 C-8.17932861 8.36828613 -8.56935059 8.79125977 -8.97119141 9.22705078 C-8.97119141 7.90705078 -8.97119141 6.58705078 -8.97119141 5.22705078 C-6.59619141 3.60205078 -6.59619141 3.60205078 -3.97119141 2.22705078 C-1.97119141 0.22705078 -1.97119141 0.22705078 0 0 Z " fill="#6E61D4" transform="translate(371.97119140625,164.77294921875)"/>
<path d="M0 0 C1.32 0.33 2.64 0.66 4 1 C1.0173737 6.7266425 -2.62294157 11.26638344 -7 16 C-7.66 15.34 -8.32 14.68 -9 14 C-7.68 13.34 -6.36 12.68 -5 12 C-5.34786708 10.02463255 -5.34786708 10.02463255 -6 8 C-6.66 7.67 -7.32 7.34 -8 7 C-8 6.34 -8 5.68 -8 5 C-7.01 5.33 -6.02 5.66 -5 6 C-4.34 5.34 -3.68 4.68 -3 4 C-1.68252676 3.30251417 -0.35085807 2.63040043 1 2 C0.67 1.34 0.34 0.68 0 0 Z " fill="#5B48E5" transform="translate(448,397)"/>
<path d="M0 0 C0 0.66 0 1.32 0 2 C-0.99 2.495 -0.99 2.495 -2 3 C-2.433125 4.2065625 -2.433125 4.2065625 -2.875 5.4375 C-4 8 -4 8 -6 9.375 C-8 10 -8 10 -10 9 C-10.33 9.66 -10.66 10.32 -11 11 C-12.65 11 -14.3 11 -16 11 C-13.17015973 8.0253772 -10.23934977 5.60002342 -6.875 3.25 C-6.00617188 2.63640625 -5.13734375 2.0228125 -4.2421875 1.390625 C-2 0 -2 0 0 0 Z " fill="#5643E6" transform="translate(114,42)"/>
<path d="M0 0 C1.98 0 3.96 0 6 0 C6 0.66 6 1.32 6 2 C6.66 2 7.32 2 8 2 C6.7874262 5.72433382 5.49140021 9.37802806 4 13 C1.47519307 10.47519307 1.44261367 8.86176966 0.875 5.375 C0.70742188 4.37210937 0.53984375 3.36921875 0.3671875 2.3359375 C0.24601562 1.56507813 0.12484375 0.79421875 0 0 Z " fill="#5B48EC" transform="translate(473,344)"/>
<path d="M0 0 C0.99 0 1.98 0 3 0 C3 1.32 3 2.64 3 4 C3.66 4 4.32 4 5 4 C5 5.65 5 7.3 5 9 C6.32 8.67 7.64 8.34 9 8 C10.26264601 12.29299643 9.62950412 14.87831311 8 19 C6.39877443 16.59816164 5.46414439 14.84821846 4.4921875 12.20703125 C4.22792969 11.49482422 3.96367187 10.78261719 3.69140625 10.04882812 C3.42199219 9.31083984 3.15257812 8.57285156 2.875 7.8125 C2.59785156 7.06291016 2.32070312 6.31332031 2.03515625 5.54101562 C1.35329598 3.69529041 0.67618441 1.84781213 0 0 Z " fill="#5740E2" transform="translate(12,329)"/>
<path d="M0 0 C0.66 0.99 1.32 1.98 2 3 C2.66 2.34 3.32 1.68 4 1 C5.6415049 4.2830098 4.51888624 7.42545033 4 11 C2.35 11.66 0.7 12.32 -1 13 C-1.66 12.34 -2.32 11.68 -3 11 C-2.01 7.37 -1.02 3.74 0 0 Z " fill="#5947EC" transform="translate(10,179)"/>
<path d="M0 0 C0.88300781 0.00902344 1.76601563 0.01804687 2.67578125 0.02734375 C3.67158203 0.04474609 3.67158203 0.04474609 4.6875 0.0625 C4.6875 0.3925 4.6875 0.7225 4.6875 1.0625 C0.62822539 1.93250431 -3.43530627 2.78070824 -7.5 3.625 C-8.65048828 3.87185547 -9.80097656 4.11871094 -10.98632812 4.37304688 C-12.09814453 4.60185547 -13.20996094 4.83066406 -14.35546875 5.06640625 C-15.37664795 5.28111572 -16.39782715 5.4958252 -17.44995117 5.71704102 C-20.3676693 6.06915796 -22.48798343 5.80889836 -25.3125 5.0625 C-25.3125 4.7325 -25.3125 4.4025 -25.3125 4.0625 C-23.61653646 3.72330729 -21.92057292 3.38411458 -20.22460938 3.04492188 C-19.53173828 2.90634766 -18.83886719 2.76777344 -18.125 2.625 C-15.52083333 2.10416667 -12.91666667 1.58333333 -10.3125 1.0625 C-9.4359375 0.8665625 -8.559375 0.670625 -7.65625 0.46875 C-5.06041967 0.01880608 -2.63249526 -0.03509994 0 0 Z " fill="#6255D5" transform="translate(308.3125,492.9375)"/>
<path d="M0 0 C0.66 0.99 1.32 1.98 2 3 C-1.625 7.875 -1.625 7.875 -5 9 C-5.33 9.99 -5.66 10.98 -6 12 C-8.91887443 15.56751319 -11.58700462 16.79645581 -16 18 C-11.86596566 13.01795861 -7.49524962 8.43340038 -2.85546875 3.91796875 C-0.93978207 2.12995862 -0.93978207 2.12995862 0 0 Z " fill="#5E4FDE" transform="translate(357,51)"/>
<path d="M0 0 C-0.33 1.65 -0.66 3.3 -1 5 C-2.32 5 -3.64 5 -5 5 C-5.1546875 5.9590625 -5.1546875 5.9590625 -5.3125 6.9375 C-5.539375 7.618125 -5.76625 8.29875 -6 9 C-6.99 9.33 -7.98 9.66 -9 10 C-9.73323796 12.01508358 -9.73323796 12.01508358 -10 14 C-11.98 14.33 -13.96 14.66 -16 15 C-3.5 0 -3.5 0 0 0 Z " fill="#5949DC" transform="translate(409,0)"/>
<path d="M0 0 C0.66 0 1.32 0 2 0 C1.88590407 1.45922693 1.75834456 2.91740598 1.625 4.375 C1.55539063 5.18710938 1.48578125 5.99921875 1.4140625 6.8359375 C1 9 1 9 -1 11 C-0.67 11.66 -0.34 12.32 0 13 C-1.32 13 -2.64 13 -4 13 C-4.33 13.99 -4.66 14.98 -5 16 C-5.66 16 -6.32 16 -7 16 C-5.35433477 10.31497465 -2.70967216 5.23318364 0 0 Z " fill="#5744DD" transform="translate(119,177)"/>
<path d="M0 0 C-1.15585285 3.91211733 -2.35534962 6.8745041 -5 10 C-5.66 9.67 -6.32 9.34 -7 9 C-7.40729228 6.67843403 -7.74438677 4.3431213 -8 2 C-4.77208445 -0.1519437 -3.71599191 -0.20086443 0 0 Z " fill="#6453EB" transform="translate(78,154)"/>
<path d="M0 0 C1.32 0 2.64 0 4 0 C4 0.66 4 1.32 4 2 C5.2065625 2.1546875 5.2065625 2.1546875 6.4375 2.3125 C10.13506769 3.02606569 13.50649365 4.1205054 17.046875 5.37890625 C18.9760751 6.10101544 18.9760751 6.10101544 21 6 C21 6.66 21 7.32 21 8 C22.32 8 23.64 8 25 8 C25 8.66 25 9.32 25 10 C25.66 10.33 26.32 10.66 27 11 C21.48062849 10.01739396 16.47240507 8.05349788 11.25 6.0625 C10.27933594 5.70220703 9.30867187 5.34191406 8.30859375 4.97070312 C7.38691406 4.62072266 6.46523437 4.27074219 5.515625 3.91015625 C4.67290039 3.59183838 3.83017578 3.27352051 2.96191406 2.94555664 C1 2 1 2 0 0 Z " fill="#4C3BD3" transform="translate(150,479)"/>
<path d="M0 0 C2.31 0 4.62 0 7 0 C3.5010554 2.33262973 -0.0915221 3.89258121 -3.9375 5.5625 C-4.65357422 5.87896484 -5.36964844 6.19542969 -6.10742188 6.52148438 C-7.1505957 6.9768457 -7.1505957 6.9768457 -8.21484375 7.44140625 C-8.84511475 7.71670166 -9.47538574 7.99199707 -10.12475586 8.27563477 C-12.06114862 9.02362035 -13.977951 9.53836926 -16 10 C-16 9.34 -16 8.68 -16 8 C-10.375 5 -10.375 5 -7 5 C-7.33 4.01 -7.66 3.02 -8 2 C-5.13822943 0.56911472 -3.06624227 1.40008303 0 2 C0 1.34 0 0.68 0 0 Z " fill="#6555DB" transform="translate(176,65)"/>
<path d="M0 0 C0.66 0.33 1.32 0.66 2 1 C0.42323368 3.10937632 -1.16097079 5.21239258 -2.75 7.3125 C-3.1934375 7.90740234 -3.636875 8.50230469 -4.09375 9.11523438 C-6.4747471 12.24904673 -8.65113445 14.83262674 -12 17 C-11.67 15.35 -11.34 13.7 -11 12 C-10.01 12 -9.02 12 -8 12 C-8 10.68 -8 9.36 -8 8 C-7.01 8 -6.02 8 -5 8 C-4.855625 7.401875 -4.71125 6.80375 -4.5625 6.1875 C-4.1127561 4.43849596 -3.57107659 2.71322977 -3 1 C-2.01 0.67 -1.02 0.34 0 0 Z " fill="#5949D9" transform="translate(372,336)"/>
<path d="M0 0 C0.33 0 0.66 0 1 0 C2.40364053 8.07093303 2.40364053 15.92906697 1 24 C0.34 24 -0.32 24 -1 24 C-1.33 21.36 -1.66 18.72 -2 16 C-1.34 16 -0.68 16 0 16 C0 10.72 0 5.44 0 0 Z " fill="#6A58D6" transform="translate(497,264)"/>
<path d="M0 0 C1.32 0.33 2.64 0.66 4 1 C1.73596792 2.84232994 -0.5354564 4.67387834 -2.8125 6.5 C-3.77639648 7.28697266 -3.77639648 7.28697266 -4.75976562 8.08984375 C-5.38173828 8.58613281 -6.00371094 9.08242187 -6.64453125 9.59375 C-7.21534424 10.05458984 -7.78615723 10.51542969 -8.37426758 10.99023438 C-10 12 -10 12 -13 12 C-12.67 10.68 -12.34 9.36 -12 8 C-10.35 8 -8.7 8 -7 8 C-7 6.68 -7 5.36 -7 4 C-5.5459375 3.566875 -5.5459375 3.566875 -4.0625 3.125 C-0.89335797 2.35785318 -0.89335797 2.35785318 0 0 Z " fill="#4D3BE1" transform="translate(132,89)"/>
<path d="M0 0 C0.33 0 0.66 0 1 0 C1.33 3.3 1.66 6.6 2 10 C2.99 9.67 3.98 9.34 5 9 C4.67 10.98 4.34 12.96 4 15 C2.35 15.33 0.7 15.66 -1 16 C-1.09688221 10.55306686 -1.12862175 5.36095333 0 0 Z " fill="#6152E0" transform="translate(338,74)"/>
<path d="M0 0 C0.33 0.99 0.66 1.98 1 3 C-3.79700229 10.01100335 -10.6609294 15.43432363 -17 21 C-17.66 20.67 -18.32 20.34 -19 20 C-18.29875 19.39414062 -17.5975 18.78828125 -16.875 18.1640625 C-10.53081692 12.56118342 -5.06818763 6.82535297 0 0 Z " fill="#4D3BD3" transform="translate(330,308)"/>
<path d="M0 0 C4.62644502 6.93966753 5.49300591 16.78323488 5 25 C4.34 25 3.68 25 3 25 C2.95101563 24.20335937 2.90203125 23.40671875 2.8515625 22.5859375 C2.45915275 17.0245441 1.84151732 12.27901632 0 7 C-0.07522969 4.66787973 -0.09325876 2.3314689 0 0 Z " fill="#7466E0" transform="translate(394,212)"/>
<path d="M0 0 C0.99 0.33 1.98 0.66 3 1 C2.34 2.65 1.68 4.3 1 6 C0.34 6 -0.32 6 -1 6 C-1.59732819 8.76264289 -2 11.16032769 -2 14 C-3.98 14.33 -5.96 14.66 -8 15 C-6.14183119 11.04913623 -3.72642599 7.60121637 -1.2421875 4.0234375 C0.17439306 2.11164344 0.17439306 2.11164344 0 0 Z " fill="#4F3DE1" transform="translate(416,356)"/>
<path d="M0 0 C2.91517292 1.07401108 4.77810176 1.77810176 7 4 C7 4.99 7 5.98 7 7 C7.598125 7.103125 8.19625 7.20625 8.8125 7.3125 C11.31258286 8.09824033 12.37535082 8.96918853 14 11 C14 11.66 14 12.32 14 13 C14.99 13.33 15.98 13.66 17 14 C16.34 14.66 15.68 15.32 15 16 C13.29231534 14.29231534 11.58486714 12.58440728 9.87890625 10.875 C8.34537195 9.34465392 6.79944719 7.82673248 5.25 6.3125 C3.29214016 4.30025517 1.61296471 2.29210775 0 0 Z " fill="#5B4AD9" transform="translate(137,350)"/>
<path d="M0 0 C0 3.56344779 -0.98671639 5.72589761 -2.375 9 C-2.81585938 10.051875 -3.25671875 11.10375 -3.7109375 12.1875 C-5 15 -5 15 -7 18 C-7 16.68 -7 15.36 -7 14 C-7.66 14 -8.32 14 -9 14 C-9 13.01 -9 12.02 -9 11 C-8.01 11 -7.02 11 -6 11 C-5.7525 9.9275 -5.505 8.855 -5.25 7.75 C-4.00116854 4.00350563 -2.97511342 2.47926118 0 0 Z " fill="#7D72D8" transform="translate(163,204)"/>
<path d="M0 0 C2 1 2 1 2.88671875 3.14453125 C3.28310547 4.46517578 3.28310547 4.46517578 3.6875 5.8125 C3.95949219 6.68519531 4.23148438 7.55789063 4.51171875 8.45703125 C5.01319861 11.06873834 4.86233704 12.51716384 4 15 C3.34 15 2.68 15 2 15 C2 13.35 2 11.7 2 10 C1.34 10 0.68 10 0 10 C0 6.7 0 3.4 0 0 Z " fill="#604FE3" transform="translate(57,300)"/>
<path d="M0 0 C0.33 0.66 0.66 1.32 1 2 C1.66 2 2.32 2 3 2 C3.06058594 2.69867188 3.12117187 3.39734375 3.18359375 4.1171875 C3.26738281 5.02726562 3.35117188 5.93734375 3.4375 6.875 C3.51871094 7.77992188 3.59992187 8.68484375 3.68359375 9.6171875 C3.86989285 12.01110861 3.86989285 12.01110861 5 14 C5.04022391 16.3329866 5.04320247 18.66706666 5 21 C3.23288001 18.34932001 2.59849878 16.99543645 1.89453125 14.0234375 C1.71599609 13.270625 1.53746094 12.5178125 1.35351562 11.7421875 C1.17498047 10.96101563 0.99644531 10.17984375 0.8125 9.375 C0.52729492 8.19164062 0.52729492 8.19164062 0.23632812 6.984375 C-0.22554972 5.00051593 -0.61877152 3.00092298 -1 1 C-0.67 0.67 -0.34 0.34 0 0 Z " fill="#7061DB" transform="translate(6,302)"/>
<path d="M0 0 C3.37462715 0.54723683 5.08235 1.0549 8 3 C7.65120368 6.25543229 6.97866739 7.01873107 4.4375 9.25 C3.633125 9.8275 2.82875 10.405 2 11 C1.375 8.125 1.375 8.125 1 5 C1.66 4.34 2.32 3.68 3 3 C2.01 2.67 1.02 2.34 0 2 C0 1.34 0 0.68 0 0 Z " fill="#5844E6" transform="translate(347,21)"/>
<path d="M0 0 C8.415 1.485 8.415 1.485 17 3 C17 3.66 17 4.32 17 5 C13.37 5 9.74 5 6 5 C6 4.67 6 4.34 6 4 C3.69 3.67 1.38 3.34 -1 3 C-0.67 2.01 -0.34 1.02 0 0 Z " fill="#5E4FD6" transform="translate(278,2)"/>
<path d="M0 0 C0.66 0 1.32 0 2 0 C2.19617816 2.54126172 2.38217248 5.08260459 2.5625 7.625 C2.61857422 8.33785156 2.67464844 9.05070312 2.73242188 9.78515625 C3.02495798 14.03668104 2.89547939 17.79456347 2 22 C1.67 22 1.34 22 1 22 C0.13216326 17.00993875 -0.06331353 12.2983697 0.0625 7.234375 C0.10307117 4.82658368 0.10307117 4.82658368 -1 2 C-0.67 1.34 -0.34 0.68 0 0 Z " fill="#6E62D6" transform="translate(1,266)"/>
<path d="M0 0 C1.4540625 0.0309375 1.4540625 0.0309375 2.9375 0.0625 C-0.94042288 4.99158146 -4.82366833 8.6048711 -10.0625 12.0625 C-10.3925 11.0725 -10.7225 10.0825 -11.0625 9.0625 C-8.0625 7.0625 -8.0625 7.0625 -5.0625 7.0625 C-5.0625 6.4025 -5.0625 5.7425 -5.0625 5.0625 C-4.4025 5.0625 -3.7425 5.0625 -3.0625 5.0625 C-3.3409375 4.1034375 -3.3409375 4.1034375 -3.625 3.125 C-3.769375 2.444375 -3.91375 1.76375 -4.0625 1.0625 C-3.0625 0.0625 -3.0625 0.0625 0 0 Z " fill="#5645E0" transform="translate(350.0625,359.9375)"/>
<path d="M0 0 C0.66 0.99 1.32 1.98 2 3 C1.72414063 3.80695313 1.44828125 4.61390625 1.1640625 5.4453125 C-0.50657583 10.54692619 -0.46725566 15.53798319 -0.625 20.875 C-0.66367188 21.94492188 -0.70234375 23.01484375 -0.7421875 24.1171875 C-0.83602452 26.74462408 -0.92171557 29.37206171 -1 32 C-1.33 32 -1.66 32 -2 32 C-2.05843491 27.97922848 -2.0937424 23.95856741 -2.125 19.9375 C-2.14175781 18.80376953 -2.15851563 17.67003906 -2.17578125 16.50195312 C-2.21019727 10.59960616 -2.04944811 5.55932973 0 0 Z " fill="#4B3DCF" transform="translate(102,228)"/>
<path d="M0 0 C2 3 2 3 1.64453125 5.1640625 C1.36996094 5.97617188 1.09539062 6.78828125 0.8125 7.625 C0.379375 8.93984375 0.379375 8.93984375 -0.0625 10.28125 C-0.5265625 11.62703125 -0.5265625 11.62703125 -1 13 C-1.56272111 14.70826051 -2.12523793 16.41658834 -2.6875 18.125 C-3.12344701 19.41719164 -3.56033498 20.70906867 -4 22 C-4.33 22 -4.66 22 -5 22 C-5.48917798 16.37445324 -4.26317143 12.56897963 -1.97265625 7.4296875 C-0.98343431 4.95861905 -0.44274315 2.61917529 0 0 Z " fill="#7063E4" transform="translate(65,173)"/>
<path d="M0 0 C0.74958984 0.00902344 1.49917969 0.01804688 2.27148438 0.02734375 C4.11862654 0.05087422 5.96560412 0.08674439 7.8125 0.125 C7.8125 0.455 7.8125 0.785 7.8125 1.125 C5.39674393 1.62978485 2.98005639 2.12897642 0.5625 2.625 C-0.46037109 2.83962891 -0.46037109 2.83962891 -1.50390625 3.05859375 C-4.83383121 3.73751049 -7.77082551 4.125 -11.1875 4.125 C-11.1875 3.465 -11.1875 2.805 -11.1875 2.125 C-7.39586973 -0.40275351 -4.37875969 -0.09943035 0 0 Z " fill="#8273E7" transform="translate(232.1875,152.875)"/>
<path d="M0 0 C0.99 0.33 1.98 0.66 3 1 C4.1875 4.0625 4.1875 4.0625 5 7 C4.01 6.67 3.02 6.34 2 6 C2 4.68 2 3.36 2 2 C1.34 2 0.68 2 0 2 C-0.04125 2.5775 -0.0825 3.155 -0.125 3.75 C-1.44065958 7.13312465 -3.96552364 8.19222685 -7 10 C-7.66 9.67 -8.32 9.34 -9 9 C-6.03 6.03 -3.06 3.06 0 0 Z " fill="#5341DA" transform="translate(475,148)"/>
<path d="M0 0 C0.66 0 1.32 0 2 0 C2.33 0.99 2.66 1.98 3 3 C1.01036694 5.65284409 -0.23777031 7.26981217 -3 9 C-7.04911158 9.52545723 -10.94012576 9.35474629 -15 9 C-15 8.67 -15 8.34 -15 8 C-14.24074219 7.89042969 -13.48148437 7.78085938 -12.69921875 7.66796875 C-11.70535156 7.50941406 -10.71148437 7.35085937 -9.6875 7.1875 C-8.70136719 7.03667969 -7.71523438 6.88585937 -6.69921875 6.73046875 C-3.82369368 5.95228758 -2.76196331 5.35498656 -1 3 C-0.67 2.01 -0.34 1.02 0 0 Z " fill="#7466DF" transform="translate(280,146)"/>
<path d="M0 0 C0.66 0 1.32 0 2 0 C0.56032356 5.23518706 -1.81696611 9.63026009 -5 14 C-5.33 14 -5.66 14 -6 14 C-6 12.35 -6 10.7 -6 9 C-5.34 9 -4.68 9 -4 9 C-3.896875 8.443125 -3.79375 7.88625 -3.6875 7.3125 C-2.85821592 4.5230899 -1.65700944 2.3860936 0 0 Z " fill="#4D3ADA" transform="translate(383,316)"/>
<path d="M0 0 C0.66 0.33 1.32 0.66 2 1 C1.45730469 1.30292969 0.91460937 1.60585937 0.35546875 1.91796875 C-3.93986158 4.43325228 -6.85835324 6.31514772 -9 11 C-9.99 10.67 -10.98 10.34 -12 10 C-8.44255049 5.25673399 -5.38846744 2.54172993 0 0 Z M-14 11 C-13.34 11.33 -12.68 11.66 -12 12 C-12.33 12.99 -12.66 13.98 -13 15 C-13.99 15 -14.98 15 -16 15 C-15.34 13.68 -14.68 12.36 -14 11 Z " fill="#4B36DF" transform="translate(171,123)"/>
<path d="M0 0 C7.54673035 0.40277493 14.73973247 0.82191974 22 3 C19 5 19 5 16.9152832 4.85986328 C16.13499756 4.68181152 15.35471191 4.50375977 14.55078125 4.3203125 C13.70322266 4.13339844 12.85566406 3.94648438 11.98242188 3.75390625 C10.66081055 3.44259766 10.66081055 3.44259766 9.3125 3.125 C8.41982422 2.92519531 7.52714844 2.72539062 6.60742188 2.51953125 C4.40214382 2.02422816 2.20018996 1.51735651 0 1 C0 0.67 0 0.34 0 0 Z " fill="#6E60D9" transform="translate(187,493)"/>
<path d="M0 0 C-2.40689803 2.72675159 -4.92471023 4.11966596 -8.1875 5.6875 C-9.08855469 6.12449219 -9.98960937 6.56148438 -10.91796875 7.01171875 C-11.94857422 7.50091797 -11.94857422 7.50091797 -13 8 C-10.73461837 1.20385512 -6.90876146 -0.67732956 0 0 Z " fill="#4C37E6" transform="translate(382,462)"/>
<path d="M0 0 C0.66 0.33 1.32 0.66 2 1 C2.31241371 3.54941373 2.51303421 6.00361513 2.625 8.5625 C2.66367187 9.27341797 2.70234375 9.98433594 2.7421875 10.71679688 C2.83671783 12.47742425 2.91945817 14.23867728 3 16 C0.984375 14.91796875 0.984375 14.91796875 -1 13 C-1.171875 9.86328125 -1.171875 9.86328125 -0.75 6.3125 C-0.62109375 5.13300781 -0.4921875 3.95351563 -0.359375 2.73828125 C-0.24078125 1.83464844 -0.1221875 0.93101562 0 0 Z " fill="#604EDD" transform="translate(51,266)"/>
<path d="M0 0 C0.66 0 1.32 0 2 0 C2 0.99 2 1.98 2 3 C2.99 3 3.98 3 5 3 C5 4.32 5 5.64 5 7 C3.35 6.67 1.7 6.34 0 6 C0 7.65 0 9.3 0 11 C-0.66 11 -1.32 11 -2 11 C-1.34 7.37 -0.68 3.74 0 0 Z " fill="#4C3BDA" transform="translate(7,191)"/>
<path d="M0 0 C2.56538479 2.56538479 3.37357879 5.06045896 4.6875 8.4375 C5.14511719 9.59121094 5.60273438 10.74492187 6.07421875 11.93359375 C7 15 7 15 6 18 C2.29377358 12.52890385 0 6.61175488 0 0 Z " fill="#7C6DE3" transform="translate(482,160)"/>
<path d="M0 0 C6.19861907 -0.67012098 11.35623611 1.75052827 17 4 C17 4.66 17 5.32 17 6 C10.93267948 4.96232949 5.5626148 3.66038099 0 1 C0 0.67 0 0.34 0 0 Z " fill="#5D4BDD" transform="translate(184,439)"/>
<path d="M0 0 C0.33 0 0.66 0 1 0 C3.36363636 15.95454545 3.36363636 15.95454545 0 21 C-1.33257403 6.21867882 -1.33257403 6.21867882 0 0 Z " fill="#806FDD" transform="translate(497,213)"/>
<path d="M0 0 C0.33 0.99 0.66 1.98 1 3 C0.67 3.66 0.34 4.32 0 5 C0.66 5.33 1.32 5.66 2 6 C1.21625 6.268125 0.4325 6.53625 -0.375 6.8125 C-3.28114923 7.84814432 -3.28114923 7.84814432 -5 11 C-6.32 10.67 -7.64 10.34 -9 10 C-8.43410156 9.44570313 -7.86820312 8.89140625 -7.28515625 8.3203125 C-6.55167969 7.59585937 -5.81820313 6.87140625 -5.0625 6.125 C-4.33160156 5.40570313 -3.60070312 4.68640625 -2.84765625 3.9453125 C-0.94332001 2.12972808 -0.94332001 2.12972808 0 0 Z " fill="#5C4EDA" transform="translate(402,376)"/>
<path d="M0 0 C4 5 4 5 8 10 C7.67 10.66 7.34 11.32 7 12 C5.68 11.67 4.36 11.34 3 11 C3.33 9.68 3.66 8.36 4 7 C2.68 7 1.36 7 0 7 C-1.04449911 3.86650268 -0.93423645 3.01031744 0 0 Z " fill="#4836DF" transform="translate(83,358)"/>
<path d="M0 0 C0.33 0 0.66 0 1 0 C2.19088986 5.38027025 3.2919519 10.45291384 3 16 C2.34 15.67 1.68 15.34 1 15 C1 13.68 1 12.36 1 11 C0.01 11.33 -0.98 11.66 -2 12 C-1.34 8.04 -0.68 4.08 0 0 Z " fill="#6350E2" transform="translate(54,283)"/>
<path d="M0 0 C0.625 1.8125 0.625 1.8125 1 4 C-1 7 -1 7 -4 8 C-5.39712274 9.95597184 -6.73779907 11.95436401 -8 14 C-8.66 13.67 -9.32 13.34 -10 13 C-9.52949219 12.39671875 -9.05898438 11.7934375 -8.57421875 11.171875 C-7.64029297 9.97304687 -7.64029297 9.97304687 -6.6875 8.75 C-6.07261719 7.96109375 -5.45773438 7.1721875 -4.82421875 6.359375 C-3.19620982 4.2537703 -1.59064137 2.13390657 0 0 Z " fill="#7061E0" transform="translate(60,88)"/>
<path d="M0 0 C1.32 1.32 2.64 2.64 4 4 C3.67 4.66 3.34 5.32 3 6 C-1.95 4.68 -6.9 3.36 -12 2 C-12 1.67 -12 1.34 -12 1 C-10.95199219 1.01740234 -10.95199219 1.01740234 -9.8828125 1.03515625 C-8.97273438 1.04417969 -8.06265625 1.05320313 -7.125 1.0625 C-5.76761719 1.07990234 -5.76761719 1.07990234 -4.3828125 1.09765625 C-1.9831415 1.16249257 -1.9831415 1.16249257 0 0 Z " fill="#5E4CE1" transform="translate(300,56)"/>
<path d="M0 0 C0.33 0.66 0.66 1.32 1 2 C-0.14453125 4.56640625 -0.14453125 4.56640625 -1.8125 7.5625 C-2.35519531 8.55378906 -2.89789063 9.54507812 -3.45703125 10.56640625 C-5 13 -5 13 -7 14 C-7.33 12.68 -7.66 11.36 -8 10 C-6.68 9.34 -5.36 8.68 -4 8 C-4 7.01 -4 6.02 -4 5 C-3.34 5 -2.68 5 -2 5 C-2 3.68 -2 2.36 -2 1 C-1.34 0.67 -0.68 0.34 0 0 Z " fill="#5F4EDC" transform="translate(473,361)"/>
<path d="M0 0 C0.33 0.66 0.66 1.32 1 2 C-5.18204709 5.86377943 -12.15565722 5.09998366 -19 4 C-19 3.67 -19 3.34 -19 3 C-17.87980469 2.86722656 -16.75960938 2.73445313 -15.60546875 2.59765625 C-14.13279271 2.41943431 -12.66013753 2.24103989 -11.1875 2.0625 C-10.44951172 1.97548828 -9.71152344 1.88847656 -8.95117188 1.79882812 C-5.83266879 1.41783454 -2.98891878 0.99630626 0 0 Z " fill="#8476E9" transform="translate(273,346)"/>
<path d="M0 0 C0.33 0 0.66 0 1 0 C2.01532144 4.62535321 2.0485889 8.36873235 1 13 C-0.5625 14.9375 -0.5625 14.9375 -2 16 C-2.66 15.67 -3.32 15.34 -4 15 C-2.68 10.05 -1.36 5.1 0 0 Z " fill="#5D4DE1" transform="translate(443,293)"/>
<path d="M0 0 C0.66 0 1.32 0 2 0 C2.4125 0.433125 2.825 0.86625 3.25 1.3125 C5.03909916 3.21922347 5.03909916 3.21922347 8.0625 4.4375 C11.11068828 6.05887675 11.90197792 6.81573596 13 10 C9.67865043 8.85828608 6.70347797 7.34101632 3.6875 5.5625 C2.99011719 5.15128906 2.29273438 4.74007813 1.57421875 4.31640625 C1.05472656 3.88199219 0.53523437 3.44757813 0 3 C0 2.01 0 1.02 0 0 Z " fill="#6253DA" transform="translate(213,285)"/>
<path d="M0 0 C0.33 0 0.66 0 1 0 C1 2.97 1 5.94 1 9 C1.66 9 2.32 9 3 9 C3 9.66 3 10.32 3 11 C2.34 11 1.68 11 1 11 C0.67 11.99 0.34 12.98 0 14 C-2.47272727 5.41818182 -2.47272727 5.41818182 -1 1 C-0.67 0.67 -0.34 0.34 0 0 Z " fill="#6759E1" transform="translate(440,181)"/>
<path d="M0 0 C0.66 0 1.32 0 2 0 C2.33 0.99 2.66 1.98 3 3 C0.69 5.31 -1.62 7.62 -4 10 C-4.33 8.68 -4.66 7.36 -5 6 C-5.66 5.67 -6.32 5.34 -7 5 C-3.535 4.505 -3.535 4.505 0 4 C0 2.68 0 1.36 0 0 Z " fill="#6A5AE5" transform="translate(491,94)"/>
<path d="M0 0 C1.051875 0.2475 1.051875 0.2475 2.125 0.5 C5.62420306 1.10855705 8.52220648 0.61372827 12 0 C9.65085508 2.34914492 8.04320554 2.73140357 4.875 3.625 C3.50988281 4.01558594 3.50988281 4.01558594 2.1171875 4.4140625 C1.41851562 4.60742188 0.71984375 4.80078125 0 5 C-0.5625 3.0625 -0.5625 3.0625 -1 1 C-0.67 0.67 -0.34 0.34 0 0 Z " fill="#4E3BDC" transform="translate(332,482)"/>
<path d="M0 0 C1 2 1 2 1 5 C0.01 6.485 0.01 6.485 -1 8 C-4.625 8.6875 -4.625 8.6875 -8 9 C-7.04270084 7.87411986 -6.08412105 6.7493285 -5.125 5.625 C-4.59132813 4.99851563 -4.05765625 4.37203125 -3.5078125 3.7265625 C-2.38567993 2.44163349 -1.20628025 1.20628025 0 0 Z " fill="#5242DD" transform="translate(271,191)"/>
<path d="M0 0 C0.66 0 1.32 0 2 0 C2.50588147 1.91512272 3.00448391 3.83216922 3.5 5.75 C3.7784375 6.81734375 4.056875 7.8846875 4.34375 8.984375 C5 12 5 12 5 16 C4.34 16 3.68 16 3 16 C2.87625 14.9275 2.7525 13.855 2.625 12.75 C2.21826684 9.17614517 2.21826684 9.17614517 0.9375 6.875 C-0.25409043 4.49181915 -0.14598495 2.62772904 0 0 Z " fill="#897BE3" transform="translate(489,181)"/>
<path d="M0 0 C1.32 0 2.64 0 4 0 C2.61811547 3.21043882 1.07578097 5.04936365 -1.625 7.25 C-2.57246094 8.03117187 -2.57246094 8.03117187 -3.5390625 8.828125 C-4.02117187 9.21484375 -4.50328125 9.6015625 -5 10 C-4.125 5.25 -4.125 5.25 -3 3 C-2.34 3 -1.68 3 -1 3 C-0.67 2.01 -0.34 1.02 0 0 Z " fill="#5C4CDA" transform="translate(344,32)"/>
<path d="M0 0 C7.42857143 -0.14285714 7.42857143 -0.14285714 11 1 C11 1.66 11 2.32 11 3 C7.37 3 3.74 3 0 3 C0 2.01 0 1.02 0 0 Z " fill="#887BDE" transform="translate(271,497)"/>
<path d="M0 0 C0.83927091 2.34995854 1.06091226 3.73350886 0.5 6.1875 C-1 8 -1 8 -4.625 8.75 C-5.73875 8.8325 -6.8525 8.915 -8 9 C-6.8553125 7.88625 -6.8553125 7.88625 -5.6875 6.75 C-3.5606298 4.5736677 -1.7440044 2.47832204 0 0 Z " fill="#5F4FDE" transform="translate(392,387)"/>
<path d="M0 0 C6.27 0.66 12.54 1.32 19 2 C19 2.33 19 2.66 19 3 C13.06 3.495 13.06 3.495 7 4 C7 3.34 7 2.68 7 2 C4.69 2 2.38 2 0 2 C0 1.34 0 0.68 0 0 Z " fill="#8173EB" transform="translate(227,347)"/>
<path d="M0 0 C3 1 3 1 4.16796875 2.77734375 C4.50441406 3.49019531 4.84085938 4.20304687 5.1875 4.9375 C5.70376953 6.00291016 5.70376953 6.00291016 6.23046875 7.08984375 C7 9 7 9 7 11 C6.01 10.67 5.02 10.34 4 10 C2.8125 6.9375 2.8125 6.9375 2 4 C1.34 4 0.68 4 0 4 C0 2.68 0 1.36 0 0 Z " fill="#867CDB" transform="translate(159,291)"/>
<path d="M0 0 C-0.66 1.32 -1.32 2.64 -2 4 C-4.31 3.67 -6.62 3.34 -9 3 C-9 2.34 -9 1.68 -9 1 C-2.25 -1.125 -2.25 -1.125 0 0 Z M-6 4 C-4 5 -4 5 -4 5 Z " fill="#5946E3" transform="translate(192,9)"/>
<path d="M0 0 C0.99 0 1.98 0 3 0 C2.71617054 1.75128818 2.42260471 3.50100003 2.125 5.25 C1.96257812 6.22453125 1.80015625 7.1990625 1.6328125 8.203125 C1 11 1 11 -1 15 C-0.67 10.05 -0.34 5.1 0 0 Z " fill="#7B70DE" transform="translate(491,305)"/>
<path d="M0 0 C0.66 0.33 1.32 0.66 2 1 C0.38113585 2.67262717 -1.2452729 4.33795537 -2.875 6 C-3.77992188 6.928125 -4.68484375 7.85625 -5.6171875 8.8125 C-8 11 -8 11 -10 11 C-10 9 -10 9 -7.8125 6.625 C-5.29389166 4.27429889 -2.72641411 2.10323374 0 0 Z " fill="#4A3BD4" transform="translate(184,176)"/>
<path d="M0 0 C1.32 0.33 2.64 0.66 4 1 C0.45960866 3.9156164 -3.1626772 6.50127818 -7 9 C-7.66 8.67 -8.32 8.34 -9 8 C-6.75826101 4.46041212 -4.87742737 3.42852587 -1 2 C-0.67 1.34 -0.34 0.68 0 0 Z " fill="#5541D5" transform="translate(200,163)"/>
<path d="M0 0 C0.99 0 1.98 0 3 0 C1.59155282 3.21524305 -0.10344786 5.32183868 -2.625 7.75 C-3.57246094 8.67039063 -3.57246094 8.67039063 -4.5390625 9.609375 C-5.02117187 10.06828125 -5.50328125 10.5271875 -6 11 C-6.33 10.01 -6.66 9.02 -7 8 C-5.71034824 6.62437146 -4.37310707 5.29233607 -3 4 C-2.34 4 -1.68 4 -1 4 C-0.67 2.68 -0.34 1.36 0 0 Z " fill="#5849D8" transform="translate(451,135)"/>
<path d="M0 0 C0 0.66 0 1.32 0 2 C0.99 2.33 1.98 2.66 3 3 C-2.625 6 -2.625 6 -6 6 C-6 5.01 -6 4.02 -6 3 C-2.66666667 0 -2.66666667 0 0 0 Z " fill="#6758E6" transform="translate(149,78)"/>
<path d="M0 0 C0.33 0.66 0.66 1.32 1 2 C0 5 0 5 -2 6 C-2 6.99 -2 7.98 -2 9 C-3.98 9 -5.96 9 -8 9 C-7.04270084 7.87411986 -6.08412105 6.7493285 -5.125 5.625 C-4.59132813 4.99851562 -4.05765625 4.37203125 -3.5078125 3.7265625 C-2.38567993 2.44163349 -1.20628025 1.20628025 0 0 Z " fill="#5444D7" transform="translate(366,42)"/>
<path d="M0 0 C0.66 0 1.32 0 2 0 C2.66 0.99 3.32 1.98 4 3 C4.99 3.33 5.98 3.66 7 4 C8.1875 6.0625 8.1875 6.0625 9 8 C5.00544473 7.38545304 2.25533664 5.29353263 -1 3 C-0.67 2.01 -0.34 1.02 0 0 Z " fill="#5340DE" transform="translate(104,451)"/>
<path d="M0 0 C3.7910119 1.44950455 7.3874638 3.15172566 11 5 C11 5.33 11 5.66 11 6 C6.39374606 6.32136655 3.66486096 5.91033076 0 3 C0 2.01 0 1.02 0 0 Z " fill="#6455DB" transform="translate(135,413)"/>
<path d="M0 0 C0.66 0.99 1.32 1.98 2 3 C1.125 5.6875 1.125 5.6875 0 8 C-0.33 6.68 -0.66 5.36 -1 4 C-3.31 5.65 -5.62 7.3 -8 9 C-8.66 8.67 -9.32 8.34 -10 8 C-6.7 5.36 -3.4 2.72 0 0 Z " fill="#4836DB" transform="translate(375,404)"/>
<path d="M0 0 C1.18538537 3.70432927 1.35140565 7.1345378 1 11 C-1 12.9375 -1 12.9375 -3 14 C-2.58846263 9.02906176 -2.20399168 4.55491614 0 0 Z " fill="#6353E1" transform="translate(435,319)"/>
<path d="M0 0 C0.99 0.66 1.98 1.32 3 2 C2.01 4.64 1.02 7.28 0 10 C-0.66 9.67 -1.32 9.34 -2 9 C-2.625 5.9375 -2.625 5.9375 -3 3 C-2.01 3.33 -1.02 3.66 0 4 C0 2.68 0 1.36 0 0 Z " fill="#5644E3" transform="translate(389,299)"/>
<path d="M0 0 C-0.125 1.8125 -0.125 1.8125 -1 4 C-3.9375 5.8125 -3.9375 5.8125 -7 7 C-7.66 6.67 -8.32 6.34 -9 6 C-8.07213211 4.99105628 -7.13231567 3.99309093 -6.1875 3 C-5.66542969 2.443125 -5.14335937 1.88625 -4.60546875 1.3125 C-3 0 -3 0 0 0 Z " fill="#5745DA" transform="translate(364,209)"/>
<path d="M0 0 C0.99 0.33 1.98 0.66 3 1 C0.69 3.31 -1.62 5.62 -4 8 C-4.66 7.01 -5.32 6.02 -6 5 C-5.34 3.68 -4.68 2.36 -4 1 C-2.68 1.33 -1.36 1.66 0 2 C0 1.34 0 0.68 0 0 Z " fill="#4935DF" transform="translate(294,133)"/>
<path d="M0 0 C4.455 0.99 4.455 0.99 9 2 C9 2.99 9 3.98 9 5 C6 6 6 6 2.8125 4.5625 C1.884375 4.046875 0.95625 3.53125 0 3 C0 2.01 0 1.02 0 0 Z " fill="#5C48E1" transform="translate(311,8)"/>
<path d="M0 0 C4.30764815 1.56641751 8.06171464 3.68336156 12 6 C10.02 6.99 10.02 6.99 8 8 C7.6596875 7.0409375 7.6596875 7.0409375 7.3125 6.0625 C6.14749104 3.72806339 6.14749104 3.72806339 3.375 3.25 C2.59125 3.1675 1.8075 3.085 1 3 C0.67 2.01 0.34 1.02 0 0 Z " fill="#7A6DE2" transform="translate(146,419)"/>
<path d="M0 0 C2.74931827 0.68732957 4.53418821 1.35560222 6.22265625 3.69140625 C7.20324656 5.43116325 8.10688055 7.2137611 9 9 C6 9 6 9 4.39453125 7.5390625 C3.61142578 6.59160156 3.61142578 6.59160156 2.8125 5.625 C2.28269531 4.99851562 1.75289062 4.37203125 1.20703125 3.7265625 C0 2 0 2 0 0 Z " fill="#6B5CDC" transform="translate(52,403)"/>
<path d="M0 0 C2.31 0.66 4.62 1.32 7 2 C5.02 4.31 3.04 6.62 1 9 C0.17189174 5.68756695 -0.09278428 3.34023421 0 0 Z M2 2 C3 4 3 4 3 4 Z " fill="#4833E2" transform="translate(329,42)"/>
<path d="M0 0 C0.66 0.33 1.32 0.66 2 1 C-0.97 3.64 -3.94 6.28 -7 9 C-7.66 7.68 -8.32 6.36 -9 5 C-8.2575 4.9175 -7.515 4.835 -6.75 4.75 C-3.48778646 3.8603054 -2.19045122 2.51496251 0 0 Z " fill="#4B39DA" transform="translate(418,433)"/>
<path d="M0 0 C1.65 0 3.3 0 5 0 C6.66666667 3.33333333 8.33333333 6.66666667 10 10 C2.51708428 3.84965831 2.51708428 3.84965831 0 0 Z " fill="#4737D3" transform="translate(63,416)"/>
<path d="M0 0 C0 0.99 0 1.98 0 3 C-6.93 4.485 -6.93 4.485 -14 6 C-12.53706784 3.07413567 -10.59729902 2.94053412 -7.5625 1.875 C-6.57378906 1.52179688 -5.58507812 1.16859375 -4.56640625 0.8046875 C-2 0 -2 0 0 0 Z " fill="#5142D0" transform="translate(293,340)"/>
<path d="M0 0 C0.66 0.99 1.32 1.98 2 3 C0.21190303 4.17213045 -1.58059125 5.33755526 -3.375 6.5 C-4.37273437 7.1496875 -5.37046875 7.799375 -6.3984375 8.46875 C-9 10 -9 10 -11 10 C-11 9.34 -11 8.68 -11 8 C-5.25 5 -5.25 5 -3 5 C-2.67 4.01 -2.34 3.02 -2 2 C-1.34 2 -0.68 2 0 2 C0 1.34 0 0.68 0 0 Z " fill="#6355D2" transform="translate(285,285)"/>
<path d="M0 0 C-1.24735567 0.6509259 -2.49801832 1.29551669 -3.75 1.9375 C-4.44609375 2.29714844 -5.1421875 2.65679687 -5.859375 3.02734375 C-9.45199936 4.65975883 -11.17563022 5.27478993 -15 4 C-13.06767179 3.13419713 -11.12892806 2.28270059 -9.1875 1.4375 C-8.10855469 0.96183594 -7.02960938 0.48617187 -5.91796875 -0.00390625 C-3 -1 -3 -1 0 0 Z " fill="#4E3CDA" transform="translate(201,111)"/>
<path d="M0 0 C0 0.66 0 1.32 0 2 C-0.99 2.495 -0.99 2.495 -2 3 C-2.33 3.99 -2.66 4.98 -3 6 C-5.31 6.33 -7.62 6.66 -10 7 C-3.18421053 0 -3.18421053 0 0 0 Z " fill="#5B4BDB" transform="translate(114,42)"/>
<path d="M0 0 C2 2 2 2 2.1953125 4.1640625 C2.17210937 4.97617187 2.14890625 5.78828125 2.125 6.625 C2.10695313 7.44226563 2.08890625 8.25953125 2.0703125 9.1015625 C2.03550781 10.04128906 2.03550781 10.04128906 2 11 C1.67 10.01 1.34 9.02 1 8 C0.34 7.67 -0.32 7.34 -1 7 C-2.125 4.9375 -2.125 4.9375 -3 3 C-2.01 2.67 -1.02 2.34 0 2 C0 1.34 0 0.68 0 0 Z " fill="#614FE3" transform="translate(45,386)"/>
<path d="M0 0 C0.66 0 1.32 0 2 0 C2.433125 0.639375 2.86625 1.27875 3.3125 1.9375 C5.40849852 4.49927596 6.78299472 4.65221564 10 5 C10.33 6.65 10.66 8.3 11 10 C9.68 9.34 8.36 8.68 7 8 C7 7.34 7 6.68 7 6 C6.401875 5.938125 5.80375 5.87625 5.1875 5.8125 C2.12856542 4.6763243 1.44958901 2.82669858 0 0 Z " fill="#4633DA" transform="translate(208,279)"/>
<path d="M0 0 C0.33 0 0.66 0 1 0 C1.26785714 8.03571429 1.26785714 8.03571429 -1 12 C-1.22162329 10.37675914 -1.42689803 8.751279 -1.625 7.125 C-1.74101562 6.22007812 -1.85703125 5.31515625 -1.9765625 4.3828125 C-1.98429687 3.59648437 -1.99203125 2.81015625 -2 2 C-1.34 1.34 -0.68 0.68 0 0 Z " fill="#7E70E5" transform="translate(348,223)"/>
<path d="M0 0 C0.99 0.33 1.98 0.66 3 1 C1.8572081 2.16964602 0.71068285 3.33564556 -0.4375 4.5 C-1.07558594 5.1496875 -1.71367187 5.799375 -2.37109375 6.46875 C-4 8 -4 8 -5 8 C-5 6.35 -5 4.7 -5 3 C-4.34 3 -3.68 3 -3 3 C-1.37485532 1.54166642 -1.37485532 1.54166642 0 0 Z " fill="#5E4DDC" transform="translate(475,112)"/>
<path d="M0 0 C0.66 0.99 1.32 1.98 2 3 C0.515 5.475 0.515 5.475 -1 8 C-1.33 7.01 -1.66 6.02 -2 5 C-2.66 4.67 -3.32 4.34 -4 4 C-3.67 3.01 -3.34 2.02 -3 1 C-2.01 0.67 -1.02 0.34 0 0 Z " fill="#5845EC" transform="translate(52,101)"/>
<path d="M0 0 C1.11375 0.598125 2.2275 1.19625 3.375 1.8125 C4.00148437 2.14894531 4.62796875 2.48539062 5.2734375 2.83203125 C7 4 7 4 9 7 C6.03 6.67 3.06 6.34 0 6 C0 5.34 0 4.68 0 4 C0.66 4 1.32 4 2 4 C2 3.34 2 2.68 2 2 C1.34 2 0.68 2 0 2 C0 1.34 0 0.68 0 0 Z " fill="#4D39DF" transform="translate(126,406)"/>
<path d="M0 0 C0 3.11227195 -0.45627049 5.94152152 -1 9 C-2.32 8.67 -3.64 8.34 -5 8 C-4.45773019 4.20411134 -2.79872437 2.52788007 0 0 Z " fill="#523FDD" transform="translate(446,175)"/>
<path d="M0 0 C0.96926297 3.01548479 1.40721244 5.09176095 0 8 C-3.0625 9.75 -3.0625 9.75 -6 11 C-4.18690997 7.22272911 -2.0926741 3.62730178 0 0 Z " fill="#503DDC" transform="translate(40,116)"/>
<path d="M0 0 C1.65 0 3.3 0 5 0 C4.125 4.75 4.125 4.75 3 7 C2.34 7 1.68 7 1 7 C1.33 5.68 1.66 4.36 2 3 C1.34 2.67 0.68 2.34 0 2 C0 1.34 0 0.68 0 0 Z " fill="#4A39DB" transform="translate(492,89)"/>
<path d="M0 0 C1.32 0.66 2.64 1.32 4 2 C1.1875 4.0625 1.1875 4.0625 -2 6 C-2.99 5.67 -3.98 5.34 -5 5 C-4.34 3.68 -3.68 2.36 -3 1 C-2.01 1.33 -1.02 1.66 0 2 C0 1.34 0 0.68 0 0 Z " fill="#6D53E3" transform="translate(392,453)"/>
<path d="M0 0 C0.33 0.66 0.66 1.32 1 2 C1.66 2.33 2.32 2.66 3 3 C2 4 2 4 -0.5625 4.0625 C-1.7690625 4.0315625 -1.7690625 4.0315625 -3 4 C-3.33 4.99 -3.66 5.98 -4 7 C-4.66 6.01 -5.32 5.02 -6 4 C-4.02 2.68 -2.04 1.36 0 0 Z " fill="#5E4EE2" transform="translate(352,419)"/>
<path d="M0 0 C-0.6875 1.9375 -0.6875 1.9375 -2 4 C-4.625 4.75 -4.625 4.75 -7 5 C-7.33 4.34 -7.66 3.68 -8 3 C-2.25 0 -2.25 0 0 0 Z " fill="#6551DD" transform="translate(362,415)"/>
<path d="M0 0 C0.33 0.66 0.66 1.32 1 2 C0.06421005 4.35981813 -0.93347808 6.69631264 -2 9 C-3.32 8.34 -4.64 7.68 -6 7 C-4.02 4.69 -2.04 2.38 0 0 Z " fill="#503DDF" transform="translate(383,396)"/>
<path d="M0 0 C1.32 0.33 2.64 0.66 4 1 C0.375 7.75 0.375 7.75 -3 10 C-3 9.01 -3 8.02 -3 7 C-2.34 7 -1.68 7 -1 7 C-0.31292445 4.50935112 0 2.62113708 0 0 Z " fill="#6D60DD" transform="translate(448,397)"/>
<path d="M0 0 C2.97 0.495 2.97 0.495 6 1 C5.34 2.65 4.68 4.3 4 6 C3.34 6 2.68 6 2 6 C2 5.34 2 4.68 2 4 C1.34 4 0.68 4 0 4 C0 2.68 0 1.36 0 0 Z " fill="#4B34DE" transform="translate(371,330)"/>
<path d="M0 0 C0.33 0.99 0.66 1.98 1 3 C1.66 3 2.32 3 3 3 C2.67 4.32 2.34 5.64 2 7 C1.67 6.67 1.34 6.34 1 6 C0.67 6.99 0.34 7.98 0 9 C-0.66 9 -1.32 9 -2 9 C-1.34 6.03 -0.68 3.06 0 0 Z " fill="#6756E9" transform="translate(347,267)"/>
<path d="M0 0 C0.66 0 1.32 0 2 0 C2.22174933 1.45635371 2.42698698 2.91522956 2.625 4.375 C2.74101563 5.18710938 2.85703125 5.99921875 2.9765625 6.8359375 C2.98429688 7.55007812 2.99203125 8.26421875 3 9 C2.34 9.66 1.68 10.32 1 11 C-0.20272819 8.59454362 -0.10071472 7.05003047 -0.0625 4.375 C-0.05347656 3.55773437 -0.04445312 2.74046875 -0.03515625 1.8984375 C-0.02355469 1.27195313 -0.01195313 0.64546875 0 0 Z " fill="#453AC8" transform="translate(1,223)"/>
<path d="M0 0 C0.66 0 1.32 0 2 0 C2.75 1.75 2.75 1.75 3 4 C1.0625 6.25 1.0625 6.25 -1 8 C-1.66 6.35 -2.32 4.7 -3 3 C-2.01 2.34 -1.02 1.68 0 1 C0 0.67 0 0.34 0 0 Z " fill="#5744E9" transform="translate(172,184)"/>
<path d="M0 0 C0.33 0.66 0.66 1.32 1 2 C-2.01887244 5.48331435 -4.56909529 6.79157144 -9 8 C-8.07038578 6.84775972 -7.1309875 5.70340824 -6.1875 4.5625 C-5.66542969 3.92441406 -5.14335937 3.28632812 -4.60546875 2.62890625 C-3 1 -3 1 0 0 Z " fill="#5848D9" transform="translate(350,61)"/>
<path d="M0 0 C0.66 0 1.32 0 2 0 C1.44271087 3.34373475 0.64826111 6.03312999 -1 9 C-3.97 8.505 -3.97 8.505 -7 8 C-7 7.67 -7 7.34 -7 7 C-5.35 7 -3.7 7 -2 7 C-1.34 4.69 -0.68 2.38 0 0 Z " fill="#5F51D5" transform="translate(319,57)"/>
<path d="M0 0 C-1.24546405 3.73639216 -2.63404953 4.18756513 -6 6 C-6.66 5.01 -7.32 4.02 -8 3 C-5.48696401 0.48696401 -3.51117809 0 0 0 Z " fill="#6856E1" transform="translate(410,442)"/>
<path d="M0 0 C1.17539996 0.92652701 2.34010577 1.86663387 3.5 2.8125 C4.1496875 3.33457031 4.799375 3.85664063 5.46875 4.39453125 C7 6 7 6 7 9 C0.70535714 4.17857143 0.70535714 4.17857143 0 0 Z " fill="#5C4ED5" transform="translate(100,380)"/>
<path d="M0 0 C0.66 0 1.32 0 2 0 C3.4606285 2.64738916 4 3.89448334 4 7 C4.66 7 5.32 7 6 7 C6 7.66 6 8.32 6 9 C4.68 8.34 3.36 7.68 2 7 C2 6.01 2 5.02 2 4 C1.34 4 0.68 4 0 4 C0 2.68 0 1.36 0 0 Z " fill="#7769E1" transform="translate(73,341)"/>
<path d="M0 0 C1.32 1.32 2.64 2.64 4 4 C3.67 4.99 3.34 5.98 3 7 C1.68 7 0.36 7 -1 7 C-0.67 4.69 -0.34 2.38 0 0 Z " fill="#4C37E8" transform="translate(436,319)"/>
<path d="M0 0 C0.33 0.66 0.66 1.32 1 2 C-0.65 3.32 -2.3 4.64 -4 6 C-5.32 5.34 -6.64 4.68 -8 4 C-5.53721199 1.53721199 -3.29323018 1.00228745 0 0 Z " fill="#634EDE" transform="translate(227,206)"/>
<path d="M0 0 C2.97 0.33 5.94 0.66 9 1 C6.01353231 2.99097846 3.40312738 3.94124926 0 5 C0 3.33333333 0 1.66666667 0 0 Z " fill="#6F60E3" transform="translate(212,156)"/>
<path d="M0 0 C0.66 0.66 1.32 1.32 2 2 C-0.77280706 5.08089673 -3.06326356 6.68775452 -7 8 C-7 7.34 -7 6.68 -7 6 C-5.46875 4.4921875 -5.46875 4.4921875 -3.5 2.875 C-2.8503125 2.33617187 -2.200625 1.79734375 -1.53125 1.2421875 C-1.0259375 0.83226562 -0.520625 0.42234375 0 0 Z " fill="#4331E0" transform="translate(374,35)"/>
<path d="M0 0 C3.3 0 6.6 0 10 0 C8.02 0.99 8.02 0.99 6 2 C6 2.99 6 3.98 6 5 C3.98079663 3.69593116 1.98075027 2.36176581 0 1 C0 0.67 0 0.34 0 0 Z " fill="#4838D8" transform="translate(268,2)"/>
<path d="M0 0 C3.53600465 1.91135386 5.78972846 3.62642766 8 7 C5 7 5 7 2.3125 4.625 C0 2 0 2 0 0 Z " fill="#5D4BD6" transform="translate(111,392)"/>
<path d="M0 0 C0.66 0.99 1.32 1.98 2 3 C1.34 4.32 0.68 5.64 0 7 C0.66 7.33 1.32 7.66 2 8 C0.68 8.33 -0.64 8.66 -2 9 C-2.33 7.68 -2.66 6.36 -3 5 C-2.34 5 -1.68 5 -1 5 C-0.67 3.35 -0.34 1.7 0 0 Z " fill="#6D5CE7" transform="translate(424,343)"/>
<path d="M0 0 C2.64465038 3.1254959 3.84414715 6.08788267 5 10 C3.0625 9.5 3.0625 9.5 1 8 C0.31209578 5.30341548 0.18053536 2.7982981 0 0 Z " fill="#7F72E1" transform="translate(68,329)"/>
<path d="M0 0 C0.66 0 1.32 0 2 0 C1.5251065 4.11574371 0.9789756 7.36383344 -1 11 C-1.0270043 9.54176788 -1.04639787 8.08339325 -1.0625 6.625 C-1.07410156 5.81289063 -1.08570313 5.00078125 -1.09765625 4.1640625 C-1 2 -1 2 0 0 Z " fill="#6656E0" transform="translate(394,285)"/>
<path d="M0 0 C0.33 0.66 0.66 1.32 1 2 C1.66 2.33 2.32 2.66 3 3 C2.01 5.31 1.02 7.62 0 10 C-0.66 10 -1.32 10 -2 10 C-1.34 6.7 -0.68 3.4 0 0 Z " fill="#6859E3" transform="translate(104,214)"/>
<path d="M0 0 C0.66 0 1.32 0 2 0 C1.50168276 3.68754757 0.89932357 5.60490662 -2 8 C-2.6875 6.25 -2.6875 6.25 -3 4 C-1.6875 1.75 -1.6875 1.75 0 0 Z " fill="#4B36E0" transform="translate(84,138)"/>
<path d="M0 0 C4.29 0 8.58 0 13 0 C13.33 0.99 13.66 1.98 14 3 C13.01 3.33 12.02 3.66 11 4 C11 3.01 11 2.02 11 1 C7.37 1 3.74 1 0 1 C0 0.67 0 0.34 0 0 Z " fill="#766AD2" transform="translate(486,88)"/>
<path d="M0 0 C3.05477677 1.52738838 5.39755536 3.79357955 8 6 C7.34 6.66 6.68 7.32 6 8 C1.3125 4.38671875 1.3125 4.38671875 0 3 C0 2.01 0 1.02 0 0 Z " fill="#665ADB" transform="translate(90,441)"/>
<path d="M0 0 C1.65 0.33 3.3 0.66 5 1 C5.33 1.99 5.66 2.98 6 4 C4.02 4 2.04 4 0 4 C-0.33 3.34 -0.66 2.68 -1 2 C-0.67 1.34 -0.34 0.68 0 0 Z " fill="#6958EB" transform="translate(268,396)"/>
<path d="M0 0 C0.66 1.32 1.32 2.64 2 4 C3.98 4 5.96 4 8 4 C6.3125 5.125 6.3125 5.125 4 6 C1.25 5.125 1.25 5.125 -1 4 C-0.67 2.68 -0.34 1.36 0 0 Z " fill="#5846DF" transform="translate(215,393)"/>
<path d="M0 0 C1.65 0.33 3.3 0.66 5 1 C2.64722731 3.72426311 0.37503669 4.8141763 -3 6 C-2.67 5.01 -2.34 4.02 -2 3 C-1.34 3 -0.68 3 0 3 C0 2.01 0 1.02 0 0 Z " fill="#4F3FD8" transform="translate(326,376)"/>
<path d="M0 0 C0.66 0 1.32 0 2 0 C0.5361389 4.39158329 -1.97831338 4.87947433 -6 7 C-6 6.01 -6 5.02 -6 4 C-3 2 -3 2 0 2 C0 1.34 0 0.68 0 0 Z " fill="#5A4BD2" transform="translate(345,365)"/>
<path d="M0 0 C0.99 0 1.98 0 3 0 C4.35439668 2.70879335 4.06501451 5.00933268 4 8 C1.84622436 5.37801226 0.59927826 3.35595828 0 0 Z " fill="#5E4EDC" transform="translate(27,363)"/>
<path d="M0 0 C4.455 0.99 4.455 0.99 9 2 C6.64046906 4.35953094 5.22104383 4.49141413 2 5 C1.34 3.35 0.68 1.7 0 0 Z " fill="#6352DF" transform="translate(218,344)"/>
<path d="M0 0 C0.66 0.33 1.32 0.66 2 1 C-0.475 4.465 -0.475 4.465 -3 8 C-4 4 -4 4 -3 1 C-2.01 0.67 -1.02 0.34 0 0 Z " fill="#6859D4" transform="translate(372,336)"/>
<path d="M0 0 C0.99 0 1.98 0 3 0 C3 2.31 3 4.62 3 7 C3.66 7.33 4.32 7.66 5 8 C4.34 8.66 3.68 9.32 3 10 C2.01 6.7 1.02 3.4 0 0 Z " fill="#6555E1" transform="translate(108,299)"/>
<path d="M0 0 C0.66 0.99 1.32 1.98 2 3 C1.01 4.98 0.02 6.96 -1 9 C-1.66 8.67 -2.32 8.34 -3 8 C-1.125 2.25 -1.125 2.25 0 0 Z " fill="#8D7DE3" transform="translate(338,292)"/>
<path d="M0 0 C0.33 0 0.66 0 1 0 C0.67 2.97 0.34 5.94 0 9 C-0.33 7.68 -0.66 6.36 -1 5 C-1.66 5 -2.32 5 -3 5 C-3 4.01 -3 3.02 -3 2 C-2.01 2 -1.02 2 0 2 C0 1.34 0 0.68 0 0 Z " fill="#6A58E5" transform="translate(157,213)"/>
<path d="M0 0 C0.33 0 0.66 0 1 0 C0.25 7.625 0.25 7.625 -2 11 C-2.28571429 3.57142857 -2.28571429 3.57142857 0 0 Z " fill="#6456DC" transform="translate(62,184)"/>
<path d="M0 0 C0.33 0.99 0.66 1.98 1 3 C-0.65 4.32 -2.3 5.64 -4 7 C-4.33 6.01 -4.66 5.02 -5 4 C-3.35 2.68 -1.7 1.36 0 0 Z " fill="#523FDD" transform="translate(465,158)"/>
<path d="M0 0 C1.32 0.66 2.64 1.32 4 2 C2.37660195 3.70884005 0.70680947 5.37446717 -1 7 C-1.66 7 -2.32 7 -3 7 C-3 6.01 -3 5.02 -3 4 C-2.34 4 -1.68 4 -1 4 C-0.67 2.68 -0.34 1.36 0 0 Z " fill="#7263E4" transform="translate(97,121)"/>
<path d="M0 0 C0.99 0.33 1.98 0.66 3 1 C1.02 3.31 -0.96 5.62 -3 8 C-3.33 6.68 -3.66 5.36 -4 4 C-2.0625 1.75 -2.0625 1.75 0 0 Z " fill="#6D5EDC" transform="translate(107,112)"/>
<path d="M0 0 C3.37462715 0.54723683 5.08235 1.0549 8 3 C8 3.99 8 4.98 8 6 C7.34 6 6.68 6 6 6 C5 5 4 4 3 3 C2.01 2.67 1.02 2.34 0 2 C0 1.34 0 0.68 0 0 Z " fill="#6556D9" transform="translate(347,21)"/>
<path d="M0 0 C0.66 0 1.32 0 2 0 C2.33 2.31 2.66 4.62 3 7 C2.01 7 1.02 7 0 7 C0 4.69 0 2.38 0 0 Z " fill="#7362E3" transform="translate(153,274)"/>
<path d="M0 0 C0.66 0.33 1.32 0.66 2 1 C2.22036864 4.85645121 1.60355101 7.49223216 0 11 C-0.33 11 -0.66 11 -1 11 C-0.67 7.37 -0.34 3.74 0 0 Z " fill="#6351E0" transform="translate(447,271)"/>
<path d="M0 0 C0.66 0 1.32 0 2 0 C2.36629408 4.27343092 1.40814077 6.48812804 -1 10 C-1.66 9.67 -2.32 9.34 -3 9 C-2.01 6.03 -1.02 3.06 0 0 Z " fill="#5D4DE2" transform="translate(108,201)"/>
<path d="M0 0 C0.66 0.33 1.32 0.66 2 1 C2 1.99 2 2.98 2 4 C0.68 4 -0.64 4 -2 4 C-2.33 4.99 -2.66 5.98 -3 7 C-3.66 7 -4.32 7 -5 7 C-4.67 5.68 -4.34 4.36 -4 3 C-3.01 3 -2.02 3 -1 3 C-0.67 2.01 -0.34 1.02 0 0 Z " fill="#533FE6" transform="translate(117,186)"/>
<path d="M0 0 C0.99 0.33 1.98 0.66 3 1 C4.1875 4.0625 4.1875 4.0625 5 7 C4.01 6.67 3.02 6.34 2 6 C2 4.68 2 3.36 2 2 C0.68 2.33 -0.64 2.66 -2 3 C-1.34 2.01 -0.68 1.02 0 0 Z " fill="#6253D4" transform="translate(475,148)"/>
<path d="M0 0 C0.66 0.33 1.32 0.66 2 1 C0.9375 2.5 0.9375 2.5 -1 4 C-4.6875 4.1875 -4.6875 4.1875 -8 4 C-5.31143836 2.20762558 -3.0466145 1.01553817 0 0 Z " fill="#4A38D4" transform="translate(167,15)"/>
<path d="M0 0 C1.65 0.33 3.3 0.66 5 1 C2.64046906 3.35953094 1.22104383 3.49141413 -2 4 C-2.33 3.34 -2.66 2.68 -3 2 C-2.01 2 -1.02 2 0 2 C0 1.34 0 0.68 0 0 Z " fill="#7E72E4" transform="translate(323,487)"/>
<path d="M0 0 C0.66 0.99 1.32 1.98 2 3 C0.02 3.99 -1.96 4.98 -4 6 C-4 4.68 -4 3.36 -4 2 C-2.68 1.34 -1.36 0.68 0 0 Z " fill="#604FE2" transform="translate(344,424)"/>
<path d="M0 0 C0.99 0 1.98 0 3 0 C4.125 2.8125 4.125 2.8125 5 6 C4.01 7.485 4.01 7.485 3 9 C2.01 6.03 1.02 3.06 0 0 Z " fill="#6556DF" transform="translate(16,339)"/>
<path d="M0 0 C-0.25 1.875 -0.25 1.875 -1 4 C-3.0625 5.25 -3.0625 5.25 -5 6 C-5 4.68 -5 3.36 -5 2 C-2 0 -2 0 0 0 Z " fill="#695CDD" transform="translate(304,333)"/>
<path d="M0 0 C1.98 1.65 3.96 3.3 6 5 C3 6 3 6 0 5 C0 3.35 0 1.7 0 0 Z " fill="#4C3AD9" transform="translate(177,318)"/>
<path d="M0 0 C1.98 0.99 1.98 0.99 4 2 C4 3.98 4 5.96 4 8 C1.84622436 5.37801226 0.59927826 3.35595828 0 0 Z " fill="#5646DB" transform="translate(115,316)"/>
<path d="M0 0 C0.66 0 1.32 0 2 0 C0.25 5.75 0.25 5.75 -2 8 C-2.125 5.125 -2.125 5.125 -2 2 C-1.34 1.34 -0.68 0.68 0 0 Z " fill="#5746DD" transform="translate(383,316)"/>
<path d="M0 0 C0.33 0 0.66 0 1 0 C0.67 2.31 0.34 4.62 0 7 C-0.66 7 -1.32 7 -2 7 C-2 7.66 -2 8.32 -2 9 C-2.66 8.67 -3.32 8.34 -4 8 C-2.68 5.36 -1.36 2.72 0 0 Z " fill="#6757E0" transform="translate(27,138)"/>
</svg>
